<svg width="20" height="21" viewBox="0 0 20 21" fill="none" xmlns="http://www.w3.org/2000/svg">
<path fill-rule="evenodd" clip-rule="evenodd" d="M17.3087 0.5H2.69135C1.97837 0.502636 1.29534 0.787034 0.791189 1.29119C0.287034 1.79534 0.0026358 2.47837 0 3.19135L0 17.8087C-4.90196e-06 18.5234 0.283227 19.209 0.787667 19.7153C1.29211 20.2216 1.97664 20.5074 2.69135 20.51H9.90495V13.3564H8.05403C7.93807 13.3539 7.82758 13.3067 7.74557 13.2247C7.66355 13.1427 7.61636 13.0322 7.61381 12.9162V10.6151C7.6108 10.5059 7.64944 10.3996 7.72191 10.3178C7.79437 10.2361 7.89522 10.185 8.004 10.1748H9.90495V7.94372C9.84927 7.41485 9.91042 6.88019 10.0841 6.37755C10.2577 5.8749 10.5397 5.41652 10.9099 5.0348C11.2802 4.65308 11.7298 4.35733 12.2269 4.16845C12.724 3.97957 13.2566 3.90217 13.7869 3.94172H15.6778C15.7919 3.94172 15.9014 3.98705 15.982 4.06773C16.0627 4.14841 16.1081 4.25784 16.1081 4.37194V6.33292C16.1094 6.39025 16.0992 6.44727 16.0782 6.50063C16.0572 6.55398 16.0257 6.6026 15.9856 6.64361C15.9456 6.68463 15.8977 6.71721 15.8448 6.73946C15.792 6.7617 15.7352 6.77315 15.6778 6.77314H14.5173C13.2566 6.77314 13.0165 7.37344 13.0165 8.24387V10.1748H15.7679C15.8302 10.1744 15.8918 10.1872 15.9488 10.2124C16.0057 10.2376 16.0567 10.2746 16.0983 10.3209C16.1399 10.3673 16.1712 10.4219 16.1901 10.4812C16.2091 10.5405 16.2152 10.6032 16.2081 10.6651L15.938 12.9662C15.9236 13.0733 15.8712 13.1715 15.7904 13.2432C15.7096 13.3148 15.6057 13.355 15.4977 13.3564H13.0065V20.51H17.3087C18.0251 20.51 18.7122 20.2254 19.2188 19.7188C19.7254 19.2122 20.01 18.5251 20.01 17.8087V3.19135C20.0074 2.47664 19.7216 1.79211 19.2153 1.28767C18.709 0.783227 18.0234 0.499995 17.3087 0.5Z" fill="#475993"/>
</svg>
