<svg width="21" height="21" viewBox="0 0 21 21" fill="none" xmlns="http://www.w3.org/2000/svg">
<path d="M14.021 0.5H6.00901C4.41532 0.5 2.88691 1.13309 1.76 2.26C0.633091 3.38691 0 4.91532 0 6.50901L0 14.521C0 16.1147 0.633091 17.6431 1.76 18.77C2.88691 19.897 4.41532 20.53 6.00901 20.53H14.021C15.6147 20.53 17.1431 19.897 18.27 18.77C19.397 17.6431 20.03 16.1147 20.03 14.521V6.50901C20.03 4.91532 19.397 3.38691 18.27 2.26C17.1431 1.13309 15.6147 0.5 14.021 0.5ZM18.027 14.521C18.027 15.5835 17.605 16.6024 16.8537 17.3537C16.1024 18.105 15.0835 18.527 14.021 18.527H6.00901C5.4807 18.5351 4.95613 18.4371 4.46644 18.2386C3.97674 18.0402 3.53189 17.7454 3.15827 17.3718C2.78465 16.9982 2.48988 16.5533 2.29143 16.0636C2.09298 15.5739 1.9949 15.0493 2.003 14.521V6.50901C1.9935 5.98032 2.09063 5.45513 2.28858 4.96481C2.48654 4.47448 2.78127 4.02907 3.15517 3.65517C3.52907 3.28127 3.97448 2.98654 4.46481 2.78858C4.95513 2.59063 5.48032 2.4935 6.00901 2.503H14.021C14.5493 2.4949 15.0739 2.59298 15.5636 2.79143C16.0533 2.98988 16.4982 3.28465 16.8718 3.65827C17.2454 4.03189 17.5402 4.47674 17.7386 4.96644C17.9371 5.45613 18.0351 5.9807 18.027 6.50901V14.521Z" fill="url(#paint0_linear_2_304)"/>
<path d="M10.0149 5.32719C8.99045 5.32323 7.98781 5.62327 7.13392 6.18936C6.28003 6.75544 5.61327 7.56211 5.21801 8.50729C4.82275 9.45246 4.71677 10.4936 4.91348 11.4991C5.11019 12.5045 5.60074 13.429 6.32306 14.1555C7.04537 14.882 7.96698 15.3779 8.97125 15.5805C9.97552 15.783 11.0173 15.6831 11.9648 15.2933C12.9122 14.9036 13.7227 14.2415 14.2938 13.3909C14.8648 12.5403 15.1707 11.5395 15.1727 10.515C15.1753 9.14347 14.6337 7.82694 13.6668 6.85433C12.6998 5.88172 11.3864 5.33249 10.0149 5.32719ZM10.0149 13.6597C9.38731 13.6636 8.77269 13.4809 8.24919 13.1347C7.72569 12.7885 7.31696 12.2944 7.07495 11.7153C6.83294 11.1362 6.76858 10.4982 6.89005 9.88249C7.01153 9.26673 7.31335 8.70099 7.75715 8.25719C8.20095 7.81339 8.76668 7.51157 9.38245 7.39009C9.99821 7.26862 10.6362 7.33298 11.2153 7.57499C11.7944 7.817 12.2884 8.22574 12.6346 8.74923C12.9809 9.27273 13.1636 9.88735 13.1596 10.515C13.157 11.3482 12.8248 12.1465 12.2357 12.7357C11.6465 13.3249 10.8481 13.657 10.0149 13.6597Z" fill="url(#paint1_linear_2_304)"/>
<path d="M15.1828 6.60921C15.8686 6.60921 16.4246 6.05321 16.4246 5.36735C16.4246 4.68149 15.8686 4.12549 15.1828 4.12549C14.4969 4.12549 13.9409 4.68149 13.9409 5.36735C13.9409 6.05321 14.4969 6.60921 15.1828 6.60921Z" fill="url(#paint2_linear_2_304)"/>
<defs>
<linearGradient id="paint0_linear_2_304" x1="9.68603" y1="20.3638" x2="9.68603" y2="0.563795" gradientUnits="userSpaceOnUse">
<stop stop-color="#E09B3D"/>
<stop offset="0.3" stop-color="#C74C4D"/>
<stop offset="0.6" stop-color="#C21975"/>
<stop offset="1" stop-color="#7024C4"/>
</linearGradient>
<linearGradient id="paint1_linear_2_304" x1="9.83386" y1="20.3903" x2="9.83386" y2="0.630342" gradientUnits="userSpaceOnUse">
<stop stop-color="#E09B3D"/>
<stop offset="0.3" stop-color="#C74C4D"/>
<stop offset="0.6" stop-color="#C21975"/>
<stop offset="1" stop-color="#7024C4"/>
</linearGradient>
<linearGradient id="paint2_linear_2_304" x1="15.314" y1="20.5241" x2="15.314" y2="0.783876" gradientUnits="userSpaceOnUse">
<stop stop-color="#E09B3D"/>
<stop offset="0.3" stop-color="#C74C4D"/>
<stop offset="0.6" stop-color="#C21975"/>
<stop offset="1" stop-color="#7024C4"/>
</linearGradient>
</defs>
</svg>
