<svg width="83" height="85" viewBox="0 0 83 85" fill="none" xmlns="http://www.w3.org/2000/svg">
<ellipse cx="42.8995" cy="42.932" rx="23.9337" ry="23.9337" fill="white"/>

<path d="M38.2401 8.63355C37.3947 8.74753 36.6444 8.69054 36.008 8.47208C35.3716 8.25362 34.8492 7.8452 34.4408 7.25631C34.0418 6.66741 33.7759 5.86956 33.6429 4.87224C33.4529 3.40951 33.6619 2.27922 34.2793 1.49086C34.8967 0.693009 35.837 0.218096 37.1098 0.0471274C37.7937 -0.0383569 38.43 -0.00986227 39.0094 0.151608C39.5888 0.313079 40.0827 0.607525 40.4722 1.03495C40.8616 1.46237 41.099 2.04176 41.194 2.76363L39.5888 2.97259C39.5318 2.57366 39.4084 2.24123 39.1899 1.98477C38.9809 1.72832 38.715 1.54785 38.3825 1.44337C38.0596 1.33889 37.6987 1.3104 37.2997 1.36739C36.7488 1.44337 36.3119 1.60484 35.97 1.87079C35.6375 2.13674 35.4096 2.48818 35.2861 2.9251C35.1721 3.37152 35.1531 3.90342 35.2291 4.52081L35.2671 4.78676C35.3526 5.41364 35.5046 5.92655 35.7325 6.32548C35.9605 6.7244 36.2644 6.99985 36.6539 7.16132C37.0433 7.32279 37.5087 7.37028 38.0691 7.2943C38.487 7.23731 38.848 7.12333 39.1424 6.93336C39.4368 6.7529 39.6553 6.50594 39.7883 6.2115C39.9213 5.90755 39.9688 5.55612 39.9118 5.15719L41.46 4.95773C41.555 5.6796 41.4695 6.30648 41.213 6.81939C40.9566 7.33229 40.5576 7.74072 40.0352 8.04466C39.5413 8.34861 38.9334 8.53857 38.2401 8.63355Z" fill="white"/>
<path d="M45.5727 8.51002C44.8793 8.44354 44.2999 8.27257 43.8535 7.98762C43.4071 7.70267 43.0841 7.30374 42.8941 6.79084C42.7042 6.27793 42.6472 5.63205 42.7137 4.87219C42.7802 4.10283 42.9606 3.48544 43.2361 3.01053C43.5115 2.54512 43.901 2.21268 44.3949 2.01321C44.8888 1.81375 45.4777 1.74726 46.1805 1.81375C46.8834 1.88024 47.4628 2.05121 47.9092 2.33616C48.3556 2.6211 48.6691 3.01053 48.8591 3.52344C49.049 4.03634 49.106 4.67273 49.0395 5.44209C48.973 6.20195 48.7926 6.81933 48.5171 7.29425C48.2417 7.76916 47.8522 8.1016 47.3678 8.30106C46.8739 8.51002 46.285 8.57651 45.5727 8.51002ZM45.6866 7.29425C46.0761 7.33224 46.399 7.28475 46.646 7.15177C46.9024 7.0283 47.0924 6.80984 47.2348 6.51539C47.3678 6.22094 47.4628 5.85051 47.5008 5.39459L47.5198 5.22363C47.5578 4.76771 47.5388 4.38778 47.4628 4.07434C47.3868 3.76089 47.2253 3.51394 46.9974 3.34297C46.7694 3.172 46.4655 3.06752 46.0761 3.02953C45.6866 2.99154 45.3637 3.03903 45.1167 3.172C44.8603 3.30498 44.6703 3.51394 44.5278 3.80839C44.3949 4.10283 44.2999 4.47326 44.2619 4.92918L44.2429 5.10015C44.2049 5.55607 44.2239 5.936 44.2999 6.24944C44.3759 6.56288 44.5373 6.80983 44.7653 6.9808C44.9933 7.15177 45.2972 7.25625 45.6866 7.29425Z" fill="white"/>
<path d="M49.6001 8.85189L51.4428 2.69702L52.6395 3.05796L52.5066 3.9128L52.592 3.94129C52.7915 3.79882 53.0005 3.68484 53.2379 3.58986C53.4754 3.50437 53.7223 3.45688 53.9978 3.44738C54.2732 3.43789 54.5487 3.47588 54.8431 3.57086C55.2326 3.68484 55.5555 3.86531 55.812 4.09327C56.0684 4.32122 56.2394 4.62517 56.3154 4.9861C56.3914 5.34703 56.3534 5.79345 56.2014 6.31586L54.9571 10.4666L53.5229 10.0392L54.6912 6.14489C54.7577 5.92643 54.7861 5.73646 54.7766 5.57499C54.7672 5.41352 54.7292 5.28055 54.6627 5.15707C54.5962 5.03359 54.4917 4.93861 54.3682 4.85313C54.2352 4.76764 54.0928 4.70115 53.9218 4.65366C53.6654 4.57768 53.4184 4.56818 53.1714 4.63467C52.9245 4.70115 52.7155 4.81513 52.5256 5.0051C52.3356 5.18557 52.2026 5.42302 52.1171 5.70797L51.0248 9.28881L49.6001 8.85189Z" fill="white"/>
<path d="M58.1676 12.2239C57.7591 12.0054 57.4172 11.7775 57.1607 11.521C56.8948 11.2646 56.7048 11.0081 56.5813 10.7422C56.4579 10.4762 56.4009 10.2103 56.4009 9.9348C56.4104 9.66885 56.4769 9.4124 56.6098 9.15595C56.6288 9.11795 56.6478 9.08946 56.6668 9.06096C56.6858 9.03247 56.6953 9.01347 56.7048 8.99448L58.0061 9.67835C57.9966 9.69735 57.9871 9.70685 57.9871 9.72584C57.9776 9.74484 57.9681 9.75434 57.9681 9.77333C57.8731 9.9728 57.8541 10.1628 57.9016 10.3432C57.9586 10.5237 58.0631 10.6852 58.2245 10.8371C58.386 10.9891 58.5665 11.1126 58.7754 11.2266C58.9654 11.3215 59.1554 11.3975 59.3453 11.445C59.5353 11.4925 59.7063 11.502 59.8677 11.4735C60.0292 11.445 60.1432 11.35 60.2192 11.2076C60.3142 11.0176 60.3237 10.8371 60.2287 10.6662C60.1337 10.4857 59.9912 10.3052 59.7918 10.1153C59.5923 9.9253 59.3738 9.72584 59.1459 9.51688C58.9464 9.32692 58.747 9.12745 58.5475 8.92799C58.348 8.72852 58.1866 8.51006 58.0631 8.2916C57.9396 8.07314 57.8636 7.82619 57.8446 7.56974C57.8256 7.31328 57.8921 7.03783 58.0441 6.75289C58.1961 6.46794 58.386 6.25898 58.614 6.1165C58.8419 5.97403 59.1079 5.88855 59.3928 5.86005C59.6778 5.83156 59.9912 5.86005 60.3237 5.94553C60.6561 6.03102 60.998 6.16399 61.34 6.34446C61.6819 6.52493 61.9669 6.72439 62.2043 6.93335C62.4418 7.15181 62.6317 7.37977 62.7647 7.61723C62.8977 7.85469 62.9737 8.10164 62.9832 8.35809C62.9927 8.60505 62.9357 8.852 62.8217 9.07996C62.7932 9.12745 62.7647 9.18444 62.7362 9.23193C62.7077 9.27942 62.6887 9.30792 62.6887 9.31742L61.4065 8.64304L61.4445 8.56705C61.5204 8.43408 61.5394 8.2916 61.5014 8.14913C61.4729 8.00666 61.3875 7.86418 61.264 7.73121C61.1405 7.58873 60.96 7.46526 60.7321 7.34178C60.5611 7.2468 60.3996 7.18981 60.2572 7.14232C60.1147 7.10432 59.9817 7.08533 59.8772 7.09482C59.7633 7.10432 59.6778 7.12332 59.6018 7.17081C59.5258 7.2088 59.4688 7.27529 59.4213 7.35128C59.3453 7.48425 59.3453 7.62673 59.4118 7.7597C59.4783 7.89268 59.5923 8.04465 59.7443 8.19662C59.8962 8.34859 60.0672 8.51956 60.2477 8.70003C60.4661 8.90899 60.6941 9.11795 60.9315 9.34591C61.169 9.56437 61.3685 9.79233 61.5394 10.0298C61.7104 10.2672 61.8149 10.5332 61.8529 10.8181C61.8909 11.1031 61.8149 11.4165 61.6344 11.768C61.4635 12.1004 61.245 12.3474 60.998 12.5183C60.7511 12.6893 60.4756 12.7843 60.1717 12.8033C59.8677 12.8223 59.5543 12.7843 59.2124 12.6893C58.8799 12.5563 58.5285 12.4139 58.1676 12.2239Z" fill="white"/>
<path d="M61.5205 14.0476L65.2438 8.81406L66.4596 9.6784L62.7363 14.9119L61.5205 14.0476ZM65.8137 8.01621L66.6306 6.85742L67.8463 7.72176L67.0295 8.88055L65.8137 8.01621Z" fill="white"/>
<path d="M65.557 17.4764C65.2151 17.1629 64.9586 16.84 64.7686 16.5265C64.5787 16.2131 64.4647 15.9092 64.4172 15.6147C64.3697 15.3203 64.3792 15.0448 64.4552 14.7884C64.5312 14.5319 64.6737 14.304 64.8636 14.095C64.8921 14.0665 64.9206 14.038 64.9396 14.019C64.9681 14 64.9871 13.981 64.9966 13.9715L66.0699 14.9688C66.0604 14.9783 66.0509 14.9973 66.0319 15.0068C66.0224 15.0163 66.0129 15.0353 65.9939 15.0448C65.8514 15.2063 65.7755 15.3868 65.785 15.5767C65.785 15.7667 65.8514 15.9472 65.9654 16.1371C66.0794 16.3271 66.2219 16.4981 66.3928 16.6595C66.5448 16.802 66.7063 16.9255 66.8773 17.0205C67.0482 17.1154 67.2097 17.1724 67.3712 17.1819C67.5326 17.1914 67.6656 17.1439 67.7796 17.0205C67.9221 16.8685 67.9791 16.688 67.9316 16.4981C67.8936 16.3081 67.7986 16.0896 67.6561 15.8522C67.5136 15.6147 67.3617 15.3678 67.1907 15.1018C67.0482 14.8644 66.9058 14.6269 66.7728 14.3704C66.6398 14.1235 66.5353 13.8765 66.4783 13.6201C66.4118 13.3731 66.4118 13.1262 66.4593 12.8697C66.5068 12.6133 66.6493 12.3758 66.8678 12.1384C67.0862 11.9104 67.3237 11.7489 67.5896 11.6729C67.8556 11.597 68.131 11.578 68.416 11.6349C68.7009 11.6919 68.9954 11.7964 69.2993 11.9674C69.6033 12.1384 69.8882 12.3568 70.1732 12.6228C70.4486 12.8792 70.6766 13.1547 70.857 13.4206C71.028 13.6961 71.1515 13.962 71.218 14.2375C71.2845 14.5034 71.294 14.7599 71.237 15.0068C71.18 15.2538 71.066 15.4722 70.8855 15.6622C70.8475 15.7002 70.8095 15.7477 70.762 15.7857C70.7241 15.8237 70.6956 15.8427 70.6956 15.8522L69.6413 14.8549L69.6982 14.7884C69.8027 14.6744 69.8597 14.5509 69.8692 14.3989C69.8787 14.2565 69.8407 14.095 69.7552 13.9335C69.6697 13.7626 69.5368 13.5916 69.3468 13.4206C69.2043 13.2876 69.0714 13.1832 68.9384 13.1072C68.8054 13.0312 68.6914 12.9837 68.5869 12.9552C68.4825 12.9362 68.3875 12.9362 68.302 12.9552C68.2165 12.9742 68.1405 13.0217 68.0835 13.0882C67.9791 13.2022 67.9411 13.3351 67.9696 13.4776C67.9981 13.6296 68.0645 13.791 68.169 13.981C68.2735 14.171 68.397 14.3704 68.5205 14.5984C68.6819 14.8549 68.8434 15.1208 69.0049 15.3963C69.1758 15.6717 69.3088 15.9472 69.4133 16.2226C69.5178 16.4981 69.5463 16.7735 69.5083 17.0584C69.4703 17.3434 69.3088 17.6283 69.0429 17.9133C68.7864 18.1887 68.5205 18.3692 68.2355 18.4642C67.9506 18.5592 67.6561 18.5782 67.3617 18.5212C67.0672 18.4642 66.7633 18.3407 66.4688 18.1602C66.1554 17.9798 65.8514 17.7518 65.557 17.4764Z" fill="white"/>
<path d="M69.2521 21.5227C69.0051 21.2092 68.8722 20.9148 68.8532 20.6393C68.8342 20.3639 68.8912 20.1074 69.0241 19.8795C69.1571 19.6515 69.3281 19.452 69.5275 19.2906L72.4435 16.954L71.9591 16.3556L72.9089 15.5957L73.4123 16.2226L74.9795 15.3108L75.7204 16.2321L74.3147 17.3529L75.008 18.2173L74.0582 18.9771L73.3648 18.1128L70.5629 20.3544C70.4299 20.4588 70.3539 20.5823 70.3349 20.7058C70.3159 20.8388 70.3634 20.9718 70.4774 21.1047L70.8383 21.5511L70.0405 22.1875C69.9645 22.14 69.879 22.083 69.784 22.0071C69.689 21.9311 69.594 21.8551 69.4896 21.7601C69.4041 21.6936 69.3186 21.6081 69.2521 21.5227Z" fill="white"/>
<path d="M71.7879 25.3125C71.446 24.7236 71.2655 24.1727 71.237 23.6503C71.218 23.1374 71.3605 22.653 71.6739 22.2066C71.9874 21.7602 72.4718 21.3423 73.1367 20.9623C73.8016 20.5729 74.4094 20.3544 74.9508 20.307C75.4922 20.2595 75.9767 20.3639 76.4136 20.6394C76.8505 20.9148 77.2399 21.3423 77.5819 21.9312C77.8953 22.4631 78.0568 22.976 78.0663 23.4509C78.0758 23.9258 77.9238 24.3817 77.6199 24.8091C77.3064 25.2366 76.822 25.6355 76.1666 26.0249L75.7867 26.2434L73.5926 22.4631C73.2602 22.6815 72.9942 22.9 72.8137 23.1279C72.6333 23.3559 72.5383 23.6029 72.5383 23.8593C72.5383 24.1158 72.6238 24.4102 72.8137 24.7236C72.9087 24.8851 73.0132 25.0276 73.1367 25.1416C73.2602 25.2555 73.3931 25.341 73.5451 25.398C73.6971 25.455 73.849 25.474 74.02 25.455C74.191 25.436 74.362 25.379 74.5329 25.2745L75.2738 26.5378C74.9224 26.7468 74.5804 26.8608 74.248 26.8892C73.9155 26.9177 73.6021 26.8703 73.3076 26.7468C73.0132 26.6233 72.7283 26.4428 72.4718 26.1959C72.2153 25.9584 71.9874 25.6545 71.7879 25.3125ZM74.5139 21.9597L75.9197 24.3722C76.1476 24.2392 76.3376 24.0968 76.4611 23.9448C76.594 23.8023 76.6795 23.6503 76.7365 23.4889C76.784 23.3369 76.7935 23.1754 76.765 23.014C76.7365 22.8525 76.67 22.691 76.5656 22.5201C76.4041 22.2446 76.2236 22.0451 76.0242 21.9122C75.8247 21.7792 75.5967 21.7222 75.3498 21.7317C75.1123 21.7507 74.8274 21.8267 74.5139 21.9597Z" fill="white"/>
<path d="M73.6875 28.4849L79.7569 26.3953L80.1653 27.5731L79.396 27.9625L79.4244 28.048C79.6524 28.1239 79.8804 28.2284 80.0798 28.3709C80.2888 28.5134 80.4693 28.6843 80.6402 28.9028C80.8112 29.1213 80.9347 29.3682 81.0392 29.6627C81.1721 30.0426 81.2196 30.413 81.1816 30.755C81.1436 31.0969 81.0012 31.4103 80.7542 31.6858C80.5073 31.9612 80.1178 32.1892 79.6049 32.3697L75.5112 33.7849L75.0173 32.3697L78.8641 31.0494C79.0825 30.9734 79.2535 30.8879 79.377 30.793C79.5004 30.698 79.5954 30.584 79.6429 30.451C79.6999 30.3275 79.7189 30.1851 79.7094 30.0331C79.6999 29.8811 79.6619 29.7197 79.6049 29.5487C79.5194 29.2922 79.377 29.0833 79.187 28.9218C78.997 28.7603 78.7691 28.6559 78.5126 28.6084C78.2562 28.5609 77.9807 28.5894 77.7053 28.6843L74.1719 29.9001L73.6875 28.4849Z" fill="white"/>
<path d="M75.9764 37.5748C75.8815 36.9099 75.9289 36.3495 76.0999 35.8746C76.2804 35.3997 76.5938 35.0198 77.0592 34.7348C77.5247 34.4499 78.1325 34.2504 78.8829 34.1459C79.6523 34.0414 80.2886 34.0604 80.8111 34.2124C81.3335 34.3644 81.7419 34.6493 82.0363 35.0483C82.3308 35.4567 82.5302 35.9791 82.6252 36.6345C82.6822 37.0619 82.6822 37.4513 82.6252 37.7933C82.5682 38.1352 82.4448 38.4486 82.2643 38.7146C82.0838 38.9805 81.8464 39.199 81.5519 39.3605C81.2575 39.5219 80.8965 39.6359 80.4786 39.6929L80.2697 38.1922C80.5641 38.1542 80.8111 38.0687 80.9915 37.9547C81.172 37.8407 81.305 37.6793 81.3715 37.4893C81.4474 37.2898 81.4664 37.0524 81.4284 36.7769C81.3809 36.4445 81.267 36.1881 81.0865 35.9981C80.906 35.8081 80.6591 35.6846 80.3361 35.6277C80.0227 35.5707 79.6333 35.5707 79.1679 35.6372L79.0064 35.6561C78.5505 35.7226 78.18 35.8271 77.8951 35.9696C77.6006 36.1121 77.4012 36.302 77.2777 36.5395C77.1542 36.7769 77.1257 37.0714 77.1732 37.4323C77.2112 37.7078 77.2967 37.9262 77.4202 38.0972C77.5437 38.2682 77.7146 38.3822 77.9331 38.4486C78.1515 38.5151 78.3985 38.5341 78.6834 38.4961L78.8829 39.9209C78.484 39.9779 78.123 39.9684 77.7906 39.8924C77.4582 39.8164 77.1732 39.6739 76.9168 39.4744C76.6698 39.275 76.4609 39.009 76.2994 38.6956C76.1474 38.3726 76.0334 38.0022 75.9764 37.5748Z" fill="white"/>
<path d="M74.2482 41.9343C74.2577 41.6303 74.2957 41.3929 74.3432 41.2029C74.4002 41.0129 74.4287 40.9085 74.4382 40.8895L75.502 40.9369L75.4735 41.6208C75.464 41.7918 75.502 41.9628 75.5875 42.1432C75.673 42.3142 75.787 42.4757 75.9389 42.6181C76.0909 42.7606 76.2524 42.8746 76.4423 42.9411L82.9581 40.709L82.8917 42.2667L79.7667 43.3305C79.6243 43.378 79.4533 43.435 79.2348 43.4825C79.0164 43.53 78.7979 43.587 78.5699 43.6439C78.342 43.7009 78.1425 43.7484 77.9621 43.7769V43.8339C78.0855 43.8719 78.2185 43.9099 78.3705 43.9574C78.5225 44.0049 78.6839 44.0524 78.8454 44.1094C79.0069 44.1569 79.1588 44.2138 79.3108 44.2708C79.4628 44.3278 79.5958 44.3753 79.7097 44.4133L82.7587 45.5151L82.6922 47.0253L76.6988 44.6223C76.3664 44.4893 76.0434 44.3373 75.7395 44.1758C75.4355 44.0144 75.1696 43.8244 74.9416 43.6154C74.7137 43.4065 74.5427 43.1595 74.4192 42.8841C74.2862 42.6276 74.2387 42.3047 74.2482 41.9343Z" fill="white"/>
<path d="M78.2564 49.9512L79.5767 50.2931L78.7978 53.2851L77.4775 52.9431L78.2564 49.9512Z" fill="white"/>
<path d="M71.9681 58.737C72.6044 57.6067 73.4023 56.9039 74.3616 56.6284C75.3209 56.353 76.4512 56.5809 77.7525 57.3123C78.6073 57.7967 79.2342 58.3476 79.6237 58.9555C80.0131 59.5634 80.184 60.2283 80.1461 60.9311C80.1081 61.6435 79.8611 62.3844 79.4242 63.1632C79.1582 63.6286 78.8543 64.0371 78.5219 64.3885C78.1799 64.7399 77.819 65.0059 77.4201 65.2054C77.0211 65.3953 76.6127 65.4903 76.1853 65.4808C75.7579 65.4713 75.3209 65.3383 74.8745 65.0914L75.6819 63.6666C75.9193 63.7996 76.1473 63.8661 76.3942 63.8661C76.6317 63.8661 76.8692 63.8091 77.0876 63.7046C77.3156 63.5906 77.5245 63.4387 77.7145 63.2392C77.9045 63.0397 78.0754 62.8118 78.2274 62.5458C78.4459 62.1564 78.5883 61.786 78.6548 61.4345C78.7213 61.0831 78.7023 60.7507 78.6073 60.4372C78.5124 60.1238 78.3319 59.8293 78.0754 59.5634C77.819 59.2879 77.477 59.041 77.0591 58.8035L76.8407 58.68C76.2708 58.3571 75.7484 58.1671 75.2924 58.1196C74.8365 58.0722 74.4186 58.1671 74.0577 58.3951C73.6967 58.6231 73.3833 58.984 73.0984 59.4779C72.8609 59.8958 72.7184 60.2947 72.6709 60.6842C72.6234 61.0736 72.6614 61.425 72.8039 61.748C72.9464 62.0709 73.1933 62.3274 73.5448 62.5268L73.6208 62.5648L74.941 60.2378L76.0903 60.8836L73.9912 64.588L70.0874 62.3749L70.6478 61.3871L71.5216 61.729C71.4267 61.3965 71.3792 61.0736 71.3792 60.7507C71.3792 60.4277 71.4267 60.1048 71.5216 59.7818C71.6071 59.4494 71.7591 59.098 71.9681 58.737Z" fill="white"/>
<path d="M69.138 63.2581L74.0011 67.4468L73.1842 68.3871L72.3389 67.8172L72.2819 67.8837C72.3864 68.0737 72.4624 68.2731 72.5194 68.4821C72.5764 68.6816 72.5859 68.8905 72.5479 69.109C72.5099 69.3179 72.4054 69.5269 72.2249 69.7359C72.1394 69.8308 72.054 69.9163 71.959 69.9828C71.8735 70.0493 71.7975 70.0968 71.7405 70.1253L70.6767 69.2135L70.9711 68.8715C71.1326 68.6816 71.2561 68.4916 71.3321 68.2921C71.4081 68.1022 71.4366 67.9027 71.4081 67.7032C71.3796 67.5038 71.3131 67.3138 71.1896 67.1143C71.0661 66.9244 70.8952 66.7249 70.6672 66.535L68.1597 64.3788L69.138 63.2581Z" fill="white"/>
<path d="M64.1895 68.1022C64.7214 67.6558 65.2533 67.3708 65.7662 67.2473C66.2791 67.1239 66.7921 67.1809 67.286 67.4088C67.7894 67.6368 68.2833 68.0452 68.7772 68.6341C69.2711 69.223 69.594 69.7834 69.727 70.3153C69.86 70.8472 69.822 71.3506 69.6225 71.835C69.4136 72.3194 69.0431 72.7943 68.5112 73.2407C67.9698 73.6967 67.4379 73.9816 66.925 74.0956C66.4121 74.2096 65.9087 74.1621 65.4053 73.9341C64.9114 73.7062 64.408 73.2977 63.9141 72.7088C63.4202 72.12 63.1067 71.5596 62.9737 71.0276C62.8313 70.4957 62.8693 69.9828 63.0687 69.4984C63.2777 69.0235 63.6481 68.5581 64.1895 68.1022ZM64.9779 69.033C64.6739 69.28 64.484 69.5459 64.3985 69.8119C64.313 70.0778 64.3225 70.3723 64.4365 70.6762C64.5505 70.9802 64.7499 71.3031 65.0444 71.6545L65.1583 71.7875C65.4528 72.1389 65.7377 72.3954 66.0227 72.5569C66.3076 72.7183 66.5831 72.7848 66.868 72.7468C67.153 72.7088 67.4379 72.5664 67.7419 72.3099C68.0458 72.063 68.2358 71.797 68.3213 71.5311C68.4068 71.2651 68.3973 70.9707 68.2833 70.6667C68.1693 70.3628 67.9698 70.0398 67.6754 69.6884L67.5614 69.5554C67.267 69.204 66.982 68.9475 66.6971 68.7861C66.4121 68.6246 66.1367 68.5581 65.8517 68.5961C65.5668 68.6341 65.2723 68.7861 64.9779 69.033Z" fill="white"/>
<path d="M60.1714 71.2935L64.7781 76.1566L63.4008 76.8499L61.0262 74.1334C60.9028 73.991 60.7888 73.858 60.6748 73.7155C60.5703 73.573 60.4753 73.4496 60.3994 73.3546C60.3234 73.2596 60.2759 73.2026 60.2569 73.1836L60.1904 73.2121C60.2284 73.3546 60.2664 73.516 60.3139 73.6775C60.3614 73.8485 60.4089 74.0005 60.4468 74.1429C60.4848 74.2854 60.5133 74.3804 60.5228 74.4279L61.3397 77.8853L59.9149 78.6071L57.5784 75.9001C57.5024 75.8146 57.4074 75.7101 57.3219 75.5867C57.2269 75.4632 57.132 75.3492 57.037 75.2257C56.942 75.1118 56.866 75.0073 56.7995 74.9218L56.733 74.9503C56.7615 75.0453 56.7995 75.1592 56.8375 75.2922C56.8755 75.4252 56.9135 75.5677 56.9515 75.7101C56.9895 75.8526 57.0275 75.9856 57.056 76.1091L57.8538 79.6329L56.5811 80.2788L55.3843 73.7155L56.79 73.0031L58.8226 75.4062C58.9176 75.5297 59.0316 75.6722 59.1646 75.8241C59.2881 75.9761 59.421 76.1376 59.535 76.2895C59.6585 76.451 59.763 76.584 59.839 76.698L59.9054 76.6695C59.877 76.622 59.8485 76.527 59.801 76.3845C59.7535 76.242 59.706 76.0616 59.649 75.8431C59.592 75.6247 59.5255 75.3777 59.4685 75.0833L58.7562 72.0058L60.1714 71.2935Z" fill="white"/>
<path d="M51.4614 74.7889C51.8413 74.675 52.1642 74.6655 52.4302 74.751C52.6961 74.8364 52.9051 74.9884 53.0666 75.1974C53.228 75.4063 53.342 75.6438 53.418 75.8907L54.4723 79.4716L55.2132 79.2531L55.5551 80.4214L54.7858 80.6494L55.0327 82.4445L53.8929 82.777L53.3895 81.0578L52.3257 81.3712L51.9838 80.203L53.0476 79.8895L52.0408 76.4416C51.9933 76.2802 51.9078 76.1662 51.8033 76.0997C51.6893 76.0332 51.5469 76.0237 51.3759 76.0807L50.825 76.2422L50.54 75.2544C50.6065 75.1974 50.692 75.1404 50.806 75.0834C50.9105 75.0264 51.0244 74.9599 51.1384 74.9124C51.2429 74.8649 51.3569 74.8174 51.4614 74.7889Z" fill="white"/>
<path d="M49.7521 75.4727L50.9203 84.2206L49.4481 84.42L49.0302 81.3141L48.9447 81.3236C48.8307 81.5135 48.6883 81.6845 48.5173 81.8365C48.3463 81.9885 48.1469 82.1214 47.9189 82.2259C47.6909 82.3304 47.4345 82.4064 47.14 82.4444C46.7411 82.5014 46.3707 82.4729 46.0382 82.3684C45.7058 82.2639 45.4304 82.0644 45.2119 81.7605C44.9934 81.4661 44.8415 81.0386 44.775 80.4972L44.2051 76.204L45.6963 76.0046L46.2377 80.0318C46.2662 80.2598 46.3232 80.4402 46.3897 80.5827C46.4657 80.7252 46.5511 80.8392 46.6651 80.9152C46.7791 80.9911 46.9121 81.0481 47.0641 81.0671C47.216 81.0861 47.3775 81.0861 47.558 81.0671C47.8239 81.0291 48.0519 80.9342 48.2513 80.7822C48.4508 80.6207 48.5933 80.4212 48.6883 80.1838C48.7832 79.9368 48.8117 79.6709 48.7737 79.3764L48.2798 75.6721L49.7521 75.4727Z" fill="white"/>
<path d="M40.7478 78.7403L40.6243 80.0985L37.5469 79.8231L37.6704 78.4648L40.7478 78.7403Z" fill="white"/>
<path d="M34.4597 75.1972L32.3036 83.2898L30.7744 82.8813L32.9305 74.7888L34.4597 75.1972Z" fill="white"/>
<path d="M31.5534 74.6561L28.723 80.4215L27.6022 79.8706L27.8681 79.0538L27.7921 79.0158C27.5832 79.1298 27.3647 79.2152 27.1368 79.2722C26.9088 79.3292 26.6713 79.3482 26.4244 79.3197C26.1774 79.2912 25.9305 79.2247 25.6835 79.1013C25.3511 78.9398 25.0851 78.7213 24.8857 78.4554C24.6862 78.1894 24.6007 77.857 24.6102 77.4676L24.5342 77.4296C24.3253 77.5436 24.0973 77.629 23.8694 77.6765C23.6319 77.7335 23.3849 77.743 23.1285 77.705C22.872 77.667 22.6156 77.6005 22.3591 77.4676C22.0172 77.2966 21.7417 77.0876 21.5423 76.8312C21.3428 76.5747 21.2288 76.2708 21.2193 75.9099C21.2098 75.5489 21.3143 75.131 21.5518 74.6561L23.4894 70.6953L24.8287 71.3507L23.024 75.036C22.929 75.2355 22.872 75.4064 22.8435 75.5679C22.8245 75.7199 22.834 75.8624 22.872 75.9763C22.91 76.0903 22.9765 76.1948 23.0715 76.2898C23.1665 76.3848 23.2805 76.4608 23.4134 76.5272C23.6224 76.6317 23.8409 76.6697 24.0688 76.6317C24.2968 76.5937 24.5057 76.4987 24.7052 76.3468C24.9047 76.1948 25.0661 75.9763 25.1991 75.7104L26.8423 72.3575L28.1816 73.0129L26.3769 76.6982C26.2819 76.8977 26.2249 77.0686 26.1964 77.2301C26.1774 77.3821 26.1869 77.5246 26.2249 77.6385C26.2629 77.7525 26.3294 77.857 26.4244 77.952C26.5194 78.047 26.6333 78.1229 26.7663 78.1894C26.9753 78.2939 27.2032 78.3319 27.4312 78.2939C27.6592 78.2654 27.8776 78.1704 28.0771 78.009C28.2765 77.857 28.438 77.6385 28.571 77.3726L30.2142 74.0197L31.5534 74.6561Z" fill="white"/>
<path d="M24.0782 68.3301L18.5692 74.846L17.6288 74.0481L18.0848 73.3167L18.0183 73.2597C17.6383 73.3737 17.2679 73.3927 16.8975 73.2977C16.527 73.2028 16.1851 73.0223 15.8717 72.7563C15.4632 72.4144 15.1973 72.0345 15.0643 71.607C14.9313 71.1796 14.9408 70.7142 15.1023 70.2013C15.2638 69.6884 15.5962 69.1375 16.0996 68.5391C16.5935 67.9502 17.0779 67.5418 17.5624 67.2948C18.0468 67.0479 18.5027 66.9624 18.9396 67.0194C19.3765 67.0764 19.7754 67.2663 20.1459 67.5703C20.3738 67.7603 20.5543 67.9597 20.6968 68.1687C20.8393 68.3776 20.9437 68.5961 21.0007 68.8146C21.0577 69.0425 21.0672 69.2705 21.0482 69.4984L21.1052 69.5459L22.9479 67.3613L24.0782 68.3301ZM19.7375 68.9095C19.462 68.6721 19.1866 68.5391 18.9301 68.5106C18.6736 68.4821 18.4172 68.5486 18.1512 68.7101C17.8948 68.8715 17.6193 69.128 17.3249 69.4699L17.2109 69.6029C16.9165 69.9544 16.7075 70.2678 16.5935 70.5527C16.47 70.8377 16.4511 71.1036 16.5175 71.3601C16.5935 71.607 16.7645 71.854 17.0494 72.0915C17.3059 72.3099 17.5623 72.4239 17.8283 72.4429C18.0943 72.4619 18.3602 72.3954 18.6262 72.2339C18.8921 72.0725 19.1676 71.8255 19.4525 71.5026L19.5475 71.3886C19.7564 71.1416 19.9179 70.9137 20.0319 70.6857C20.1459 70.4578 20.2219 70.2393 20.2409 70.0398C20.2599 69.8309 20.2314 69.6409 20.1459 69.4509C20.0604 69.2515 19.9274 69.071 19.7375 68.9095Z" fill="white"/>
<path d="M16.6697 64.0466C16.7837 64.189 16.8882 64.36 17.0021 64.569C17.1161 64.7779 17.1826 65.0059 17.2301 65.2529C17.2681 65.4998 17.2396 65.7468 17.1351 66.0032C17.0306 66.2597 16.8312 66.5161 16.5272 66.7536C16.1853 67.029 15.8434 67.181 15.4919 67.2095C15.1405 67.238 14.7986 67.162 14.4471 66.991C14.0957 66.8201 13.7347 66.5636 13.3738 66.2217C13.0129 65.8797 12.6519 65.4808 12.2815 65.0249L11.8731 65.3573C11.7306 65.4713 11.6166 65.6043 11.5312 65.7373C11.4552 65.8702 11.4267 66.0222 11.4552 66.1932C11.4837 66.3641 11.5881 66.5636 11.7781 66.8011C11.9681 67.0385 12.139 67.2 12.31 67.2855C12.4715 67.371 12.614 67.409 12.7374 67.39C12.8609 67.371 12.9654 67.333 13.0604 67.257L13.1933 67.1525L14.0957 68.2733C14.0672 68.3018 14.0387 68.3303 14.0102 68.3588C13.9817 68.3873 13.9437 68.4158 13.8962 68.4538C13.6113 68.6817 13.2978 68.7957 12.9464 68.7957C12.595 68.7957 12.2435 68.6817 11.8921 68.4633C11.5407 68.2448 11.1987 67.9409 10.8758 67.5419C10.5053 67.086 10.2679 66.6586 10.1634 66.2597C10.0494 65.8607 10.0589 65.4998 10.1729 65.1579C10.2869 64.8254 10.5148 64.5215 10.8568 64.2555L13.2218 62.3654C13.3453 62.2704 13.4023 62.1659 13.3928 62.0519C13.3833 61.938 13.3548 61.843 13.2883 61.7575L13.0319 61.463L13.8297 60.8267C13.9057 60.8742 14.0102 60.9406 14.1432 61.0261C14.2761 61.1211 14.4091 61.2541 14.5516 61.4346C14.6846 61.596 14.7796 61.767 14.827 61.938C14.8745 62.1089 14.884 62.2799 14.8555 62.4509C14.827 62.6218 14.7511 62.7833 14.6466 62.9353L14.6941 62.9923C14.9125 62.9923 15.1405 63.0303 15.359 63.0872C15.5869 63.1537 15.8054 63.2582 16.0238 63.4197C16.2423 63.5812 16.4607 63.7806 16.6697 64.0466ZM15.4349 64.455C15.283 64.265 15.1215 64.1131 14.941 64.0181C14.7606 63.9136 14.5896 63.8566 14.4091 63.8376C14.2287 63.8186 14.0482 63.8471 13.8582 63.9041C13.6683 63.9706 13.4878 64.0656 13.3168 64.208L13.0889 64.3885C13.3643 64.7399 13.6493 65.0439 13.9342 65.3003C14.2192 65.5568 14.4851 65.7278 14.7511 65.8037C15.0075 65.8797 15.2545 65.8322 15.4729 65.6518C15.5869 65.5568 15.6629 65.4523 15.7104 65.3288C15.7484 65.2054 15.7579 65.0724 15.7104 64.9204C15.6534 64.7779 15.5679 64.6165 15.4349 64.455Z" fill="white"/>
<path d="M12.538 57.9104C12.8514 58.4993 13.0034 59.0502 13.0034 59.5536C13.0034 60.057 12.8324 60.5224 12.4905 60.9499C12.1581 61.3773 11.6452 61.7667 10.9708 62.1277C10.2869 62.4886 9.67903 62.6881 9.13763 62.726C8.59623 62.764 8.12131 62.6406 7.69389 62.3556C7.27597 62.0802 6.90554 61.6432 6.60159 61.0639C6.40213 60.6839 6.26915 60.323 6.20267 59.9716C6.13618 59.6296 6.14568 59.2972 6.22166 58.9837C6.29765 58.6703 6.44962 58.3853 6.66808 58.1289C6.88654 57.8724 7.19048 57.6445 7.56092 57.445L8.27328 58.7843C8.00733 58.9267 7.80787 59.0787 7.6749 59.2497C7.54192 59.4207 7.47543 59.6106 7.47543 59.8196C7.47543 60.0285 7.53242 60.2565 7.6654 60.513C7.81737 60.8074 8.01683 61.0164 8.25429 61.1303C8.49174 61.2443 8.76719 61.2728 9.08064 61.2253C9.39408 61.1683 9.76451 61.0354 10.1729 60.8169L10.3154 60.7409C10.7143 60.5225 11.0278 60.304 11.2557 60.0665C11.4837 59.8291 11.6072 59.5821 11.6357 59.3162C11.6642 59.0502 11.5977 58.7653 11.4267 58.4423C11.2937 58.1954 11.1418 58.0149 10.9708 57.9009C10.7903 57.787 10.5909 57.73 10.3724 57.7395C10.1444 57.749 9.90699 57.8154 9.66003 57.9579L8.98565 56.6852C9.33709 56.4952 9.67903 56.3812 10.021 56.3432C10.3629 56.3052 10.6763 56.3337 10.9803 56.4382C11.2842 56.5427 11.5692 56.7231 11.8256 56.9606C12.1106 57.2171 12.3385 57.5305 12.538 57.9104Z" fill="white"/>
<path d="M10.4198 52.9809C10.5528 53.3609 10.5813 53.6743 10.5148 53.9498C10.4388 54.2157 10.3058 54.4342 10.0968 54.6051C9.89738 54.7761 9.66942 54.9091 9.42246 54.9946L5.90811 56.2388L6.16456 56.9607L5.01527 57.3691L4.74932 56.6093L2.97315 56.9607L2.57422 55.8494L4.26491 55.251L3.89448 54.2062L5.04377 53.7978L5.4142 54.8426L8.79558 53.6363C8.95705 53.5793 9.07103 53.4938 9.12802 53.3799C9.18501 53.2659 9.18501 53.1234 9.12802 52.9524L8.93805 52.411L9.90687 52.0691C9.96386 52.1356 10.0304 52.2211 10.0968 52.3161C10.1633 52.4205 10.2298 52.525 10.2868 52.639C10.3343 52.7625 10.3818 52.8669 10.4198 52.9809Z" fill="white"/>
<path d="M6.64904 49.6944L5.30028 49.9129L4.79688 46.864L6.14563 46.6455L6.64904 49.6944Z" fill="white"/>
<path d="M8.34897 42.856L0 42.1816L0.351435 37.7934C0.398927 37.176 0.550899 36.6726 0.788355 36.2832C1.03531 35.8937 1.35825 35.6183 1.76668 35.4473C2.1751 35.2764 2.64052 35.2099 3.16292 35.2574C3.70432 35.3049 4.17923 35.4568 4.57816 35.7418C4.97709 36.0172 5.26203 36.3971 5.433 36.8911L8.94736 35.4378L8.80489 37.1665L5.57548 38.4488L5.36652 41.0418L8.47245 41.2888L8.34897 42.856ZM4.04626 40.9183L4.26472 38.2303C4.29321 37.8219 4.20773 37.4989 3.98927 37.2615C3.77081 37.024 3.45737 36.8911 3.03944 36.8531C2.77349 36.8341 2.54553 36.8626 2.35557 36.948C2.1656 37.0335 2.01363 37.157 1.89965 37.3375C1.78567 37.5179 1.71918 37.7459 1.70019 38.0214L1.48173 40.7094L4.04626 40.9183Z" fill="white"/>
<path d="M10.1823 32.1323C9.98286 32.7877 9.69792 33.2911 9.33698 33.6615C8.97605 34.0224 8.52013 34.2504 7.97873 34.3169C7.43733 34.3929 6.80095 34.3169 6.06958 34.0889C5.32872 33.861 4.75882 33.5665 4.3504 33.2056C3.94197 32.8446 3.69502 32.4077 3.60003 31.9043C3.50505 31.4009 3.55254 30.8215 3.7615 30.1661C3.94197 29.5772 4.20792 29.1118 4.54986 28.7794C4.8918 28.447 5.32872 28.2475 5.85112 28.1905C6.37352 28.1335 7.00041 28.2095 7.73178 28.4375L8.1497 28.5704L6.86743 32.7497C7.25686 32.8541 7.5893 32.8921 7.88375 32.8731C8.17819 32.8541 8.41565 32.7497 8.61511 32.5787C8.80508 32.4077 8.95705 32.1418 9.07103 31.7903C9.12802 31.6099 9.15651 31.4389 9.15651 31.2679C9.15651 31.097 9.12802 30.9355 9.06153 30.793C9.00454 30.6505 8.90956 30.5176 8.77658 30.4036C8.65311 30.2896 8.49164 30.2041 8.29217 30.1471L8.71959 28.7509C9.10902 28.8744 9.42247 29.0453 9.66942 29.2638C9.91638 29.4918 10.0968 29.7482 10.2013 30.0522C10.3153 30.3561 10.3628 30.679 10.3628 31.04C10.3628 31.3819 10.3058 31.7428 10.1823 32.1323ZM5.87012 32.3982L6.68697 29.7292C6.43051 29.6532 6.20256 29.6152 6.00309 29.6152C5.80363 29.6152 5.63266 29.6532 5.48069 29.7197C5.32872 29.7862 5.20524 29.8907 5.11026 30.0237C5.01527 30.1566 4.93929 30.3181 4.8823 30.4986C4.78732 30.8025 4.75882 31.0685 4.79681 31.3059C4.83481 31.5434 4.93929 31.7523 5.11975 31.9233C5.30972 32.1038 5.55668 32.2653 5.87012 32.3982Z" fill="white"/>
<path d="M13.079 29.5772L5.56592 25.5309L6.15481 24.4481L6.96216 24.7425L7.00016 24.6666C6.81019 24.3246 6.71521 23.9637 6.7342 23.5838C6.7532 23.2038 6.85768 22.8334 7.05715 22.463C7.3041 21.9975 7.62704 21.6556 8.01647 21.4371C8.4059 21.2187 8.86181 21.1332 9.40322 21.1807C9.93512 21.2377 10.5525 21.4466 11.2364 21.8171C11.9108 22.178 12.4142 22.5769 12.7561 22.9949C13.0885 23.4128 13.2785 23.8497 13.307 24.2866C13.3355 24.7235 13.2405 25.151 13.0126 25.5784C12.8701 25.8348 12.7181 26.0533 12.5471 26.2433C12.3762 26.4237 12.1862 26.5662 11.9772 26.6707C11.7683 26.7752 11.5498 26.8322 11.3124 26.8512L11.2744 26.9176L13.7914 28.2759L13.079 29.5772ZM11.6163 25.4549C11.7873 25.132 11.8633 24.847 11.8443 24.5811C11.8253 24.3246 11.7018 24.0872 11.4928 23.8592C11.2839 23.6407 10.9799 23.4223 10.581 23.2133L10.429 23.1278C10.0301 22.9094 9.67866 22.7764 9.36522 22.7194C9.06128 22.6624 8.79533 22.6909 8.56737 22.8144C8.33941 22.9379 8.13995 23.1563 7.96898 23.4793C7.80751 23.7737 7.75052 24.0492 7.77901 24.3151C7.81701 24.5811 7.94048 24.828 8.14945 25.056C8.35841 25.2839 8.66235 25.5024 9.04228 25.7114L9.17526 25.7778C9.45071 25.9298 9.71666 26.0343 9.96361 26.1008C10.2106 26.1673 10.4385 26.1863 10.638 26.1673C10.847 26.1483 11.0274 26.0723 11.1984 25.9583C11.3599 25.8443 11.5023 25.6734 11.6163 25.4549Z" fill="white"/>
<path d="M16.4514 20.5917C16.0145 21.1236 15.5586 21.4845 15.0837 21.684C14.6088 21.8835 14.1054 21.9119 13.583 21.7695C13.0511 21.627 12.5002 21.3136 11.9018 20.8291C11.3034 20.3352 10.8855 19.8508 10.6575 19.3569C10.4201 18.8725 10.3536 18.3691 10.458 17.8657C10.5625 17.3623 10.8285 16.8494 11.2654 16.3175C11.6548 15.8426 12.0822 15.5101 12.5192 15.3392C12.9656 15.1587 13.4405 15.1492 13.9439 15.2917C14.4473 15.4341 14.9982 15.7476 15.5871 16.232L15.929 16.5074L13.1461 19.8793C13.4595 20.1168 13.7634 20.2877 14.0389 20.3827C14.3143 20.4777 14.5803 20.4777 14.8272 20.3922C15.0742 20.3067 15.3117 20.1168 15.5491 19.8413C15.6726 19.6989 15.7581 19.5469 15.8246 19.3854C15.891 19.2334 15.9195 19.072 15.9195 18.9105C15.9195 18.749 15.8816 18.5971 15.8056 18.4451C15.7296 18.2931 15.6156 18.1506 15.4541 18.0272L16.385 16.8969C16.6984 17.1533 16.9264 17.4383 17.0688 17.7327C17.2113 18.0367 17.2778 18.3501 17.2588 18.6635C17.2493 18.9865 17.1733 19.3094 17.0308 19.6324C16.9074 19.9648 16.7079 20.2877 16.4514 20.5917ZM12.3672 19.1954L14.1434 17.0393C13.9344 16.8684 13.7444 16.7449 13.5545 16.6784C13.374 16.6024 13.1935 16.5739 13.0321 16.5834C12.8706 16.5929 12.7186 16.6404 12.5762 16.7259C12.4337 16.8114 12.3007 16.9254 12.1772 17.0773C11.9778 17.3243 11.8448 17.5617 11.7878 17.7992C11.7308 18.0367 11.7498 18.2646 11.8543 18.4926C11.9588 18.711 12.1297 18.9485 12.3672 19.1954Z" fill="white"/>
<path d="M20.1557 16.7735C20.0132 16.8875 19.8422 17.0015 19.6428 17.1155C19.4338 17.2295 19.2059 17.3054 18.9684 17.3529C18.7214 17.4004 18.4745 17.3719 18.2085 17.2769C17.9521 17.182 17.6956 16.9825 17.4487 16.6786C17.1637 16.3366 17.0118 15.9947 16.9738 15.6527C16.9358 15.3013 17.0023 14.9594 17.1732 14.5984C17.3347 14.247 17.5912 13.8861 17.9236 13.5156C18.256 13.1452 18.655 12.7748 19.1014 12.4043L18.7689 11.9959C18.6455 11.8534 18.522 11.7395 18.3795 11.6635C18.2465 11.5875 18.0851 11.5685 17.9141 11.597C17.7431 11.6255 17.5437 11.7395 17.3157 11.9294C17.0877 12.1194 16.9263 12.2999 16.8408 12.4708C16.7553 12.6323 16.7268 12.7843 16.7363 12.9077C16.7553 13.0312 16.8028 13.1357 16.8693 13.2212L16.9738 13.3542L15.8625 14.2755C15.834 14.247 15.8055 14.2185 15.777 14.19C15.7485 14.1615 15.72 14.1235 15.682 14.076C15.4445 13.7911 15.3306 13.4776 15.3306 13.1357C15.3306 12.7938 15.435 12.4328 15.644 12.0719C15.853 11.711 16.1569 11.369 16.5463 11.0461C16.9928 10.6757 17.4202 10.4287 17.8191 10.3052C18.218 10.1912 18.579 10.1817 18.9209 10.2957C19.2533 10.4097 19.5668 10.6282 19.8422 10.9606L21.7799 13.2877C21.8749 13.4112 21.9793 13.4586 22.0933 13.4586C22.2073 13.4491 22.3023 13.4112 22.3783 13.3447L22.6822 13.0977L23.3376 13.8861C23.2996 13.9621 23.2331 14.0665 23.1381 14.1995C23.0432 14.3325 22.9102 14.475 22.7392 14.6174C22.5777 14.7504 22.4068 14.8454 22.2358 14.9024C22.0648 14.9594 21.8939 14.9689 21.7229 14.9404C21.5519 14.9119 21.3905 14.8454 21.2385 14.7409L21.1815 14.7884C21.1815 15.0069 21.153 15.2348 21.096 15.4533C21.039 15.6812 20.925 15.8997 20.7826 16.1182C20.6401 16.3366 20.4121 16.5551 20.1557 16.7735ZM19.7188 15.5388C19.9087 15.3868 20.0512 15.2158 20.1462 15.0354C20.2507 14.8549 20.3077 14.6744 20.3172 14.494C20.3267 14.3135 20.3077 14.133 20.2412 13.9431C20.1747 13.7531 20.0702 13.5726 19.9277 13.4112L19.7378 13.1832C19.3958 13.4681 19.0919 13.7531 18.8354 14.038C18.579 14.323 18.4175 14.5984 18.3415 14.8549C18.2655 15.1208 18.3225 15.3583 18.503 15.5768C18.598 15.6907 18.7024 15.7667 18.8259 15.8047C18.9494 15.8427 19.0824 15.8427 19.2343 15.7952C19.4053 15.7667 19.5573 15.6812 19.7188 15.5388Z" fill="white"/>
<path d="M25.4362 12.9648C25.0943 13.1737 24.7903 13.2687 24.5054 13.2497C24.2299 13.2307 23.983 13.1452 23.774 12.9743C23.565 12.8128 23.3941 12.6133 23.2611 12.3949L21.3235 9.20347L20.6681 9.6024L20.0317 8.55759L20.7156 8.13967L20.0127 6.46797L21.029 5.85059L21.9598 7.37981L22.9097 6.80041L23.546 7.84522L22.5962 8.42461L24.4579 11.4926C24.5434 11.635 24.6573 11.73 24.7808 11.7585C24.9043 11.7965 25.0468 11.7585 25.1987 11.673L25.6927 11.3786L26.2246 12.2524C26.1676 12.3189 26.1011 12.4044 26.0156 12.4899C25.9301 12.5754 25.8351 12.6608 25.7401 12.7463C25.6262 12.8413 25.5312 12.9078 25.4362 12.9648Z" fill="white"/>
<path d="M27.887 8.60501L27.3931 7.33224L30.271 6.22095L30.7649 7.49371L27.887 8.60501Z" fill="white"/>
</svg>
