<svg width="175" height="179" viewBox="0 0 175 179" fill="none" xmlns="http://www.w3.org/2000/svg">
<path d="M80.6675 18.2125C78.8842 18.453 77.3013 18.3328 75.9589 17.8719C74.6164 17.4111 73.5144 16.5495 72.6528 15.3072C71.8113 14.065 71.2503 12.3819 70.9698 10.278C70.569 7.19238 71.0098 4.80802 72.3122 3.14498C73.6146 1.46191 75.5982 0.460075 78.2831 0.0994156C79.7258 -0.0809141 81.0682 -0.0208045 82.2905 0.319818C83.5127 0.660441 84.5546 1.28158 85.3761 2.18323C86.1976 3.08487 86.6985 4.30711 86.8989 5.82989L83.5127 6.2707C83.3925 5.42916 83.132 4.72788 82.6711 4.18689C82.2303 3.6459 81.6693 3.2652 80.968 3.0448C80.2868 2.8244 79.5254 2.76429 78.6839 2.88451C77.5217 3.0448 76.6 3.38542 75.8787 3.94645C75.1774 4.50748 74.6966 5.24883 74.4361 6.17052C74.1956 7.11224 74.1556 8.23429 74.3159 9.53667L74.396 10.0977C74.5763 11.4201 74.8969 12.5021 75.3778 13.3436C75.8587 14.1852 76.4999 14.7662 77.3214 15.1069C78.1429 15.4475 79.1247 15.5477 80.3068 15.3874C81.1884 15.2671 81.9498 15.0267 82.571 14.626C83.1921 14.2453 83.6529 13.7243 83.9335 13.1032C84.214 12.462 84.3142 11.7207 84.1939 10.8791L87.4599 10.4584C87.6603 11.9811 87.4799 13.3036 86.939 14.3855C86.398 15.4675 85.5564 16.3291 84.4544 16.9703C83.4125 17.6114 82.1302 18.0122 80.6675 18.2125Z" fill="white"/>
<path d="M96.1359 17.9521C94.6732 17.8118 93.451 17.4512 92.5092 16.8501C91.5675 16.249 90.8863 15.4075 90.4855 14.3255C90.0848 13.2435 89.9646 11.881 90.1048 10.2781C90.2451 8.65511 90.6258 7.35273 91.2069 6.35089C91.7879 5.3691 92.6094 4.66782 93.6513 4.24705C94.6932 3.82628 95.9355 3.68602 97.4182 3.82628C98.9009 3.96653 100.123 4.32719 101.065 4.92829C102.007 5.52939 102.668 6.35089 103.069 7.43287C103.469 8.51485 103.589 9.8573 103.449 11.4803C103.309 13.0832 102.928 14.3856 102.347 15.3874C101.766 16.3892 100.945 17.0905 99.9228 17.5113C98.8809 17.9521 97.6386 18.0924 96.1359 17.9521ZM96.3763 15.3874C97.1978 15.4676 97.8791 15.3674 98.4 15.0869C98.941 14.8264 99.3417 14.3655 99.6423 13.7444C99.9228 13.1233 100.123 12.3418 100.203 11.3801L100.243 11.0194C100.324 10.0577 100.283 9.25621 100.123 8.595C99.9629 7.93379 99.6222 7.41284 99.1414 7.05218C98.6605 6.69152 98.0193 6.47111 97.1978 6.39097C96.3763 6.31082 95.6951 6.411 95.1741 6.69152C94.6331 6.97203 94.2324 7.41284 93.9318 8.03397C93.6513 8.65511 93.451 9.43654 93.3708 10.3983L93.3307 10.759C93.2506 11.7207 93.2907 12.5222 93.451 13.1834C93.6113 13.8446 93.9519 14.3655 94.4327 14.7262C94.9136 15.0869 95.5548 15.3073 96.3763 15.3874Z" fill="white"/>
<path d="M104.631 18.6734L108.518 5.6897L111.043 6.45109L110.763 8.25439L110.943 8.3145C111.364 8.01395 111.804 7.77351 112.305 7.57314C112.806 7.39281 113.327 7.29263 113.908 7.27259C114.489 7.25255 115.07 7.3327 115.692 7.53307C116.513 7.77351 117.194 8.1542 117.735 8.63508C118.276 9.11596 118.637 9.75713 118.797 10.5185C118.958 11.2799 118.877 12.2216 118.557 13.3237L115.932 22.0797L112.906 21.178L115.371 12.963C115.511 12.5022 115.571 12.1014 115.551 11.7608C115.531 11.4202 115.451 11.1397 115.311 10.8792C115.171 10.6187 114.95 10.4183 114.69 10.238C114.409 10.0577 114.109 9.91743 113.748 9.81724C113.207 9.65695 112.686 9.63691 112.165 9.77717C111.644 9.91743 111.203 10.1579 110.803 10.5586C110.402 10.9393 110.121 11.4402 109.941 12.0413L107.637 19.5951L104.631 18.6734Z" fill="white"/>
<path d="M122.704 25.7864C121.843 25.3256 121.121 24.8447 120.58 24.3037C120.019 23.7627 119.619 23.2218 119.358 22.6607C119.098 22.0997 118.978 21.5387 118.978 20.9576C118.998 20.3966 119.138 19.8556 119.418 19.3146C119.458 19.2345 119.499 19.1744 119.539 19.1142C119.579 19.0541 119.599 19.0141 119.619 18.974L122.364 20.4166C122.344 20.4567 122.324 20.4767 122.324 20.5168C122.304 20.5569 122.284 20.5769 122.284 20.617C122.083 21.0378 122.043 21.4385 122.143 21.8192C122.264 22.1999 122.484 22.5405 122.825 22.8611C123.165 23.1817 123.546 23.4422 123.987 23.6826C124.387 23.883 124.788 24.0433 125.189 24.1434C125.59 24.2436 125.95 24.2637 126.291 24.2035C126.632 24.1434 126.872 23.9431 127.032 23.6425C127.233 23.2418 127.253 22.8611 127.052 22.5004C126.852 22.1197 126.551 21.739 126.131 21.3383C125.71 20.9376 125.249 20.5168 124.768 20.076C124.347 19.6753 123.927 19.2545 123.506 18.8337C123.085 18.413 122.744 17.9521 122.484 17.4913C122.223 17.0304 122.063 16.5095 122.023 15.9685C121.983 15.4275 122.123 14.8464 122.444 14.2453C122.764 13.6442 123.165 13.2034 123.646 12.9029C124.127 12.6023 124.688 12.422 125.289 12.3619C125.89 12.3018 126.551 12.3619 127.253 12.5422C127.954 12.7226 128.675 13.0031 129.397 13.3838C130.118 13.7645 130.719 14.1852 131.22 14.626C131.721 15.0869 132.122 15.5678 132.402 16.0687C132.683 16.5696 132.843 17.0905 132.863 17.6315C132.883 18.1525 132.763 18.6734 132.522 19.1543C132.462 19.2545 132.402 19.3747 132.342 19.4749C132.282 19.5751 132.242 19.6352 132.242 19.6552L129.537 18.2326L129.617 18.0723C129.777 17.7918 129.817 17.4913 129.737 17.1907C129.677 16.8902 129.497 16.5896 129.236 16.3091C128.976 16.0086 128.595 15.7481 128.114 15.4876C127.754 15.2872 127.413 15.167 127.112 15.0668C126.812 14.9867 126.531 14.9466 126.311 14.9667C126.071 14.9867 125.89 15.0268 125.73 15.127C125.57 15.2071 125.449 15.3474 125.349 15.5076C125.189 15.7882 125.189 16.0887 125.329 16.3692C125.469 16.6497 125.71 16.9703 126.03 17.2909C126.351 17.6115 126.712 17.9722 127.092 18.3529C127.553 18.7937 128.034 19.2345 128.535 19.7153C129.036 20.1762 129.457 20.6571 129.817 21.158C130.178 21.6589 130.398 22.2199 130.479 22.821C130.559 23.4221 130.398 24.0833 130.018 24.8247C129.657 25.526 129.196 26.0469 128.675 26.4076C128.154 26.7682 127.573 26.9686 126.932 27.0087C126.291 27.0488 125.63 26.9686 124.908 26.7682C124.207 26.4877 123.466 26.1872 122.704 25.7864Z" fill="white"/>
<path d="M129.777 29.6336L137.632 18.5934L140.196 20.4167L132.342 31.4569L129.777 29.6336ZM138.834 16.9103L140.557 14.4658L143.122 16.2892L141.399 18.7336L138.834 16.9103Z" fill="white"/>
<path d="M138.293 36.8666C137.571 36.2053 137.03 35.5241 136.63 34.8629C136.229 34.2017 135.989 33.5605 135.888 32.9394C135.788 32.3182 135.808 31.7372 135.969 31.1962C136.129 30.6552 136.429 30.1743 136.83 29.7335C136.89 29.6734 136.95 29.6133 136.99 29.5732C137.051 29.5331 137.091 29.4931 137.111 29.473L139.375 31.5769C139.355 31.5969 139.335 31.637 139.295 31.657C139.275 31.6771 139.255 31.7171 139.214 31.7372C138.914 32.0778 138.754 32.4585 138.774 32.8592C138.774 33.26 138.914 33.6407 139.154 34.0414C139.395 34.4421 139.695 34.8028 140.056 35.1434C140.377 35.444 140.717 35.7044 141.078 35.9048C141.439 36.1052 141.779 36.2254 142.12 36.2454C142.46 36.2655 142.741 36.1653 142.981 35.9048C143.282 35.5842 143.402 35.2035 143.302 34.8028C143.222 34.402 143.021 33.9412 142.721 33.4403C142.42 32.9394 142.1 32.4184 141.739 31.8574C141.439 31.3565 141.138 30.8556 140.857 30.3146C140.577 29.7936 140.357 29.2727 140.236 28.7317C140.096 28.2107 140.096 27.6898 140.196 27.1488C140.296 26.6078 140.597 26.1069 141.058 25.606C141.519 25.1251 142.02 24.7845 142.581 24.6242C143.142 24.4639 143.723 24.4238 144.324 24.544C144.925 24.6642 145.546 24.8846 146.187 25.2453C146.828 25.606 147.429 26.0668 148.031 26.6278C148.612 27.1688 149.093 27.7499 149.473 28.3109C149.834 28.892 150.094 29.453 150.235 30.0341C150.375 30.5951 150.395 31.1361 150.275 31.657C150.154 32.178 149.914 32.6388 149.533 33.0396C149.453 33.1197 149.373 33.2199 149.273 33.3C149.193 33.3802 149.133 33.4203 149.133 33.4403L146.909 31.3364L147.029 31.1962C147.249 30.9557 147.369 30.6953 147.389 30.3747C147.409 30.0741 147.329 29.7335 147.149 29.3929C146.969 29.0322 146.688 28.6716 146.287 28.3109C145.987 28.0304 145.706 27.81 145.426 27.6497C145.145 27.4894 144.905 27.3892 144.684 27.3291C144.464 27.289 144.264 27.289 144.083 27.3291C143.903 27.3692 143.743 27.4694 143.623 27.6096C143.402 27.8501 143.322 28.1306 143.382 28.4311C143.442 28.7517 143.582 29.0923 143.803 29.4931C144.023 29.8938 144.284 30.3146 144.544 30.7955C144.885 31.3364 145.225 31.8975 145.566 32.4785C145.927 33.0596 146.207 33.6407 146.428 34.2217C146.648 34.8028 146.708 35.3838 146.628 35.9849C146.548 36.586 146.207 37.1871 145.646 37.7882C145.105 38.3693 144.544 38.75 143.943 38.9504C143.342 39.1507 142.721 39.1908 142.1 39.0706C141.479 38.9504 140.837 38.6899 140.216 38.3092C139.555 37.9285 138.914 37.4476 138.293 36.8666Z" fill="white"/>
<path d="M146.087 45.4023C145.566 44.7411 145.286 44.12 145.246 43.5389C145.205 42.9578 145.326 42.4168 145.606 41.936C145.887 41.4551 146.247 41.0343 146.668 40.6937L152.819 35.7647L151.798 34.5024L153.801 32.8994L154.863 34.2219L158.169 32.2983L159.732 34.2419L156.767 36.6062L158.229 38.4296L156.226 40.0325L154.763 38.2091L148.852 42.9378C148.572 43.1582 148.411 43.4187 148.371 43.6791C148.331 43.9597 148.431 44.2402 148.672 44.5207L149.433 45.4624L147.75 46.8049C147.59 46.7047 147.41 46.5845 147.209 46.4242C147.009 46.2639 146.808 46.1036 146.588 45.9032C146.408 45.763 146.227 45.5826 146.087 45.4023Z" fill="white"/>
<path d="M151.437 53.3968C150.716 52.1546 150.335 50.9924 150.275 49.8904C150.235 48.8085 150.535 47.7866 151.196 46.8449C151.858 45.9031 152.88 45.0215 154.282 44.2201C155.685 43.3986 156.967 42.9377 158.109 42.8375C159.251 42.7374 160.273 42.9578 161.195 43.5388C162.116 44.1199 162.938 45.0215 163.659 46.2638C164.32 47.3859 164.661 48.4678 164.681 49.4697C164.701 50.4715 164.381 51.4333 163.739 52.3349C163.078 53.2366 162.056 54.0781 160.674 54.8996L159.872 55.3604L155.244 47.3859C154.543 47.8467 153.982 48.3075 153.601 48.7884C153.22 49.2693 153.02 49.7903 153.02 50.3312C153.02 50.8722 153.2 51.4934 153.601 52.1546C153.801 52.4952 154.022 52.7957 154.282 53.0362C154.543 53.2766 154.823 53.457 155.144 53.5772C155.464 53.6974 155.785 53.7375 156.146 53.6974C156.506 53.6573 156.867 53.5371 157.227 53.3167L158.79 55.9816C158.049 56.4224 157.328 56.6628 156.626 56.7229C155.925 56.783 155.264 56.6829 154.643 56.4224C154.022 56.1619 153.421 55.7812 152.88 55.2603C152.339 54.7593 151.858 54.1182 151.437 53.3968ZM157.187 46.3239L160.153 51.4132C160.634 51.1327 161.034 50.8322 161.295 50.5116C161.575 50.211 161.756 49.8904 161.876 49.5498C161.976 49.2292 161.996 48.8886 161.936 48.548C161.876 48.2074 161.736 47.8667 161.515 47.5061C161.175 46.925 160.794 46.5042 160.373 46.2237C159.952 45.9432 159.472 45.823 158.951 45.843C158.45 45.8831 157.849 46.0434 157.187 46.3239Z" fill="white"/>
<path d="M155.444 60.089L168.248 55.6809L169.109 58.1655L167.486 58.987L167.546 59.1673C168.027 59.3276 168.508 59.548 168.929 59.8485C169.37 60.1491 169.75 60.5097 170.111 60.9706C170.472 61.4314 170.732 61.9524 170.952 62.5735C171.233 63.375 171.333 64.1564 171.253 64.8777C171.173 65.599 170.872 66.2603 170.351 66.8413C169.83 67.4224 169.009 67.9033 167.927 68.284L159.291 71.2694L158.249 68.284L166.364 65.4989C166.825 65.3386 167.186 65.1582 167.446 64.9579C167.707 64.7575 167.907 64.5171 168.007 64.2366C168.127 63.9761 168.167 63.6755 168.147 63.3549C168.127 63.0344 168.047 62.6937 167.927 62.3331C167.747 61.7921 167.446 61.3513 167.045 61.0107C166.645 60.67 166.164 60.4496 165.623 60.3494C165.082 60.2493 164.501 60.3094 163.92 60.5097L156.466 63.0744L155.444 60.089Z" fill="white"/>
<path d="M160.273 79.2642C160.073 77.8616 160.173 76.6795 160.534 75.6776C160.914 74.6758 161.575 73.8743 162.557 73.2732C163.539 72.6721 164.821 72.2514 166.404 72.031C168.027 71.8106 169.37 71.8506 170.472 72.1712C171.574 72.4918 172.435 73.0929 173.056 73.9344C173.678 74.796 174.098 75.898 174.299 77.2806C174.419 78.1822 174.419 79.0037 174.299 79.725C174.179 80.4464 173.918 81.1076 173.537 81.6686C173.157 82.2296 172.656 82.6905 172.035 83.0311C171.413 83.3717 170.652 83.6121 169.77 83.7324L169.33 80.5666C169.951 80.4864 170.472 80.3061 170.852 80.0657C171.233 79.8252 171.514 79.4846 171.654 79.0839C171.814 78.6631 171.854 78.1622 171.774 77.5811C171.674 76.8798 171.434 76.3388 171.053 75.9381C170.672 75.5374 170.151 75.2769 169.47 75.1567C168.809 75.0365 167.987 75.0365 167.005 75.1767L166.665 75.2168C165.703 75.357 164.922 75.5775 164.321 75.878C163.699 76.1786 163.279 76.5793 163.018 77.0802C162.758 77.5811 162.698 78.2023 162.798 78.9636C162.878 79.5447 163.058 80.0056 163.319 80.3662C163.579 80.7269 163.94 80.9673 164.401 81.1076C164.861 81.2478 165.382 81.2879 165.984 81.2078L166.404 84.2132C165.563 84.3335 164.801 84.3134 164.1 84.1531C163.399 83.9928 162.798 83.6923 162.257 83.2715C161.736 82.8508 161.295 82.2897 160.954 81.6285C160.634 80.9473 160.393 80.1658 160.273 79.2642Z" fill="white"/>
<path d="M156.626 88.461C156.646 87.8198 156.726 87.3189 156.827 86.9181C156.947 86.5174 157.007 86.297 157.027 86.2569L159.271 86.3571L159.211 87.7997C159.191 88.1604 159.271 88.5211 159.451 88.9017C159.632 89.2624 159.872 89.603 160.193 89.9036C160.513 90.2041 160.854 90.4446 161.255 90.5848L175 85.8762L174.86 89.1622L168.268 91.4063C167.967 91.5065 167.606 91.6267 167.145 91.7269C166.685 91.8271 166.224 91.9473 165.743 92.0675C165.262 92.1878 164.841 92.2879 164.461 92.3481V92.4683C164.721 92.5484 165.002 92.6286 165.322 92.7288C165.643 92.8289 165.983 92.9291 166.324 93.0493C166.665 93.1495 166.985 93.2697 167.306 93.39C167.626 93.5102 167.907 93.6104 168.147 93.6905L174.579 96.0148L174.439 99.2006L161.796 94.1313C161.094 93.8508 160.413 93.5302 159.772 93.1896C159.131 92.849 158.57 92.4482 158.089 92.0074C157.608 91.5666 157.247 91.0457 156.987 90.4646C156.706 89.9236 156.606 89.2424 156.626 88.461Z" fill="white"/>
<path d="M165.082 105.372L167.867 106.093L166.224 112.405L163.439 111.684L165.082 105.372Z" fill="white"/>
<path d="M151.818 123.906C153.16 121.521 154.843 120.039 156.867 119.458C158.891 118.877 161.275 119.358 164.02 120.9C165.823 121.922 167.146 123.084 167.967 124.367C168.789 125.649 169.149 127.052 169.069 128.534C168.989 130.037 168.468 131.6 167.546 133.243C166.985 134.225 166.344 135.086 165.643 135.828C164.922 136.569 164.16 137.13 163.319 137.551C162.477 137.952 161.616 138.152 160.714 138.132C159.812 138.112 158.891 137.831 157.949 137.31L159.652 134.305C160.153 134.585 160.634 134.726 161.155 134.726C161.656 134.726 162.157 134.605 162.617 134.385C163.098 134.145 163.539 133.824 163.94 133.403C164.34 132.982 164.701 132.502 165.022 131.941C165.483 131.119 165.783 130.338 165.923 129.596C166.064 128.855 166.024 128.154 165.823 127.492C165.623 126.831 165.242 126.21 164.701 125.649C164.16 125.068 163.439 124.547 162.557 124.046L162.096 123.786C160.894 123.104 159.792 122.704 158.83 122.603C157.869 122.503 156.987 122.704 156.226 123.185C155.464 123.665 154.803 124.427 154.202 125.469C153.701 126.35 153.4 127.192 153.3 128.013C153.2 128.835 153.28 129.576 153.581 130.257C153.881 130.939 154.402 131.48 155.144 131.9L155.304 131.981L158.089 127.072L160.514 128.434L156.085 136.248L147.85 131.58L149.032 129.496L150.876 130.217C150.676 129.516 150.575 128.835 150.575 128.154C150.575 127.472 150.676 126.791 150.876 126.11C151.056 125.409 151.377 124.667 151.818 123.906Z" fill="white"/>
<path d="M145.847 133.443L156.105 142.28L154.382 144.263L152.599 143.061L152.479 143.201C152.699 143.602 152.86 144.023 152.98 144.464C153.1 144.884 153.12 145.325 153.04 145.786C152.96 146.227 152.739 146.668 152.359 147.108C152.178 147.309 151.998 147.489 151.798 147.629C151.617 147.77 151.457 147.87 151.337 147.93L149.093 146.006L149.714 145.285C150.054 144.884 150.315 144.484 150.475 144.063C150.635 143.662 150.696 143.241 150.635 142.821C150.575 142.4 150.435 141.999 150.175 141.578C149.914 141.177 149.554 140.757 149.073 140.356L143.783 135.808L145.847 133.443Z" fill="white"/>
<path d="M135.408 143.662C136.53 142.72 137.652 142.119 138.734 141.859C139.816 141.598 140.898 141.718 141.939 142.199C143.001 142.68 144.043 143.542 145.085 144.784C146.127 146.026 146.808 147.208 147.089 148.33C147.369 149.452 147.289 150.514 146.868 151.536C146.428 152.558 145.646 153.56 144.524 154.502C143.382 155.463 142.26 156.065 141.178 156.305C140.096 156.545 139.034 156.445 137.972 155.964C136.93 155.484 135.868 154.622 134.826 153.38C133.785 152.137 133.123 150.955 132.843 149.833C132.542 148.711 132.622 147.629 133.043 146.607C133.484 145.605 134.265 144.624 135.408 143.662ZM137.071 145.625C136.429 146.146 136.029 146.707 135.848 147.268C135.668 147.83 135.688 148.451 135.929 149.092C136.169 149.733 136.59 150.414 137.211 151.156L137.451 151.436C138.072 152.177 138.674 152.718 139.275 153.059C139.876 153.4 140.457 153.54 141.058 153.46C141.659 153.38 142.26 153.079 142.901 152.538C143.542 152.017 143.943 151.456 144.123 150.895C144.304 150.334 144.284 149.713 144.043 149.072C143.803 148.431 143.382 147.749 142.761 147.008L142.521 146.728C141.899 145.986 141.298 145.445 140.697 145.105C140.096 144.764 139.515 144.624 138.914 144.704C138.313 144.784 137.692 145.105 137.071 145.625Z" fill="white"/>
<path d="M126.932 150.394L136.65 160.653L133.744 162.116L128.735 156.385C128.475 156.085 128.234 155.804 127.994 155.504C127.773 155.203 127.573 154.943 127.413 154.742C127.253 154.542 127.152 154.422 127.112 154.382L126.972 154.442C127.052 154.742 127.132 155.083 127.233 155.423C127.333 155.784 127.433 156.105 127.513 156.405C127.593 156.706 127.653 156.906 127.673 157.006L129.396 164.3L126.391 165.822L121.462 160.112C121.302 159.932 121.101 159.711 120.921 159.451C120.721 159.19 120.52 158.95 120.32 158.689C120.119 158.449 119.959 158.229 119.819 158.048L119.679 158.108C119.739 158.309 119.819 158.549 119.899 158.83C119.979 159.11 120.059 159.411 120.14 159.711C120.22 160.012 120.3 160.292 120.36 160.553L122.043 167.986L119.358 169.349L116.833 155.504L119.799 154.001L124.087 159.07C124.287 159.331 124.528 159.631 124.808 159.952C125.069 160.272 125.349 160.613 125.589 160.934C125.85 161.274 126.07 161.555 126.231 161.795L126.371 161.735C126.311 161.635 126.251 161.434 126.151 161.134C126.05 160.833 125.95 160.453 125.83 159.992C125.71 159.531 125.569 159.01 125.449 158.389L123.947 151.897L126.932 150.394Z" fill="white"/>
<path d="M108.559 157.768C109.36 157.527 110.041 157.507 110.602 157.688C111.163 157.868 111.604 158.188 111.945 158.629C112.285 159.07 112.526 159.571 112.686 160.092L114.91 167.646L116.473 167.185L117.194 169.649L115.571 170.13L116.092 173.917L113.688 174.619L112.626 170.992L110.382 171.653L109.661 169.189L111.905 168.527L109.781 161.254C109.681 160.913 109.5 160.673 109.28 160.533C109.039 160.393 108.739 160.372 108.378 160.493L107.216 160.833L106.615 158.75C106.755 158.629 106.936 158.509 107.176 158.389C107.396 158.269 107.637 158.128 107.877 158.028C108.098 157.928 108.338 157.828 108.559 157.768Z" fill="white"/>
<path d="M104.952 159.21L107.416 177.664L104.311 178.085L103.429 171.533L103.249 171.553C103.008 171.954 102.708 172.314 102.347 172.635C101.986 172.956 101.566 173.236 101.085 173.456C100.604 173.677 100.063 173.837 99.4418 173.917C98.6003 174.038 97.8188 173.977 97.1176 173.757C96.4163 173.537 95.8352 173.116 95.3744 172.475C94.9135 171.854 94.5929 170.952 94.4527 169.81L93.2505 160.753L96.3962 160.332L97.5383 168.828C97.5984 169.309 97.7187 169.69 97.8589 169.99C98.0192 170.291 98.1995 170.531 98.44 170.691C98.6804 170.852 98.9609 170.972 99.2815 171.012C99.6021 171.052 99.9427 171.052 100.323 171.012C100.884 170.932 101.365 170.732 101.786 170.411C102.207 170.07 102.507 169.65 102.708 169.149C102.908 168.628 102.968 168.067 102.888 167.446L101.846 159.631L104.952 159.21Z" fill="white"/>
<path d="M85.9572 166.103L85.6967 168.968L79.2048 168.387L79.4653 165.522L85.9572 166.103Z" fill="white"/>
<path d="M72.6929 158.629L68.1446 175.7L64.9187 174.839L69.467 157.768L72.6929 158.629Z" fill="white"/>
<path d="M66.5616 157.487L60.5907 169.649L58.2264 168.487L58.7874 166.764L58.6271 166.684C58.1863 166.924 57.7255 167.105 57.2446 167.225C56.7637 167.345 56.2628 167.385 55.7418 167.325C55.2209 167.265 54.6999 167.125 54.179 166.864C53.4777 166.524 52.9167 166.063 52.4959 165.502C52.0751 164.941 51.8948 164.239 51.9148 163.418L51.7545 163.338C51.3137 163.578 50.8328 163.759 50.352 163.859C49.8511 163.979 49.3301 163.999 48.7891 163.919C48.2481 163.839 47.7071 163.698 47.1661 163.418C46.4448 163.057 45.8638 162.616 45.443 162.075C45.0222 161.535 44.7818 160.893 44.7617 160.132C44.7417 159.371 44.9621 158.489 45.463 157.487L49.5505 149.132L52.3757 150.514L48.5687 158.289C48.3683 158.709 48.2481 159.07 48.188 159.411C48.1479 159.731 48.168 160.032 48.2481 160.272C48.3283 160.513 48.4685 160.733 48.6689 160.933C48.8693 161.134 49.1097 161.294 49.3902 161.434C49.831 161.655 50.2919 161.735 50.7727 161.655C51.2536 161.575 51.6944 161.374 52.1152 161.054C52.536 160.733 52.8766 160.272 53.1571 159.711L56.6234 152.638L59.4486 154.021L55.6416 161.795C55.4413 162.216 55.3211 162.576 55.2609 162.917C55.2209 163.238 55.2409 163.538 55.3211 163.779C55.4012 164.019 55.5415 164.239 55.7418 164.44C55.9422 164.64 56.1826 164.8 56.4631 164.941C56.9039 165.161 57.3848 165.241 57.8657 165.161C58.3466 165.101 58.8074 164.901 59.2282 164.56C59.649 164.239 59.9896 163.779 60.2701 163.218L63.7364 156.145L66.5616 157.487Z" fill="white"/>
<path d="M50.7929 144.143L39.1716 157.888L37.188 156.205L38.1498 154.662L38.0095 154.542C37.208 154.782 36.4266 154.822 35.6452 154.622C34.8638 154.422 34.1424 154.041 33.4812 153.48C32.6196 152.759 32.0586 151.957 31.7781 151.055C31.4976 150.154 31.5176 149.172 31.8583 148.09C32.1989 147.008 32.9002 145.846 33.9621 144.584C35.004 143.341 36.0259 142.48 37.0477 141.959C38.0696 141.438 39.0314 141.258 39.9531 141.378C40.8747 141.498 41.7163 141.899 42.4977 142.54C42.9786 142.941 43.3593 143.361 43.6598 143.802C43.9604 144.243 44.1808 144.704 44.301 145.165C44.4212 145.646 44.4413 146.126 44.4012 146.607L44.5214 146.708L48.4085 142.099L50.7929 144.143ZM41.6361 145.365C41.0551 144.864 40.474 144.584 39.933 144.524C39.392 144.463 38.851 144.604 38.29 144.944C37.749 145.285 37.168 145.826 36.5468 146.547L36.3064 146.828C35.6853 147.569 35.2444 148.23 35.004 148.831C34.7435 149.433 34.7035 149.994 34.8437 150.535C35.004 151.055 35.3647 151.576 35.9658 152.077C36.5068 152.538 37.0477 152.779 37.6088 152.819C38.1698 152.859 38.7308 152.719 39.2918 152.378C39.8529 152.037 40.4339 151.516 41.035 150.835L41.2354 150.595C41.6762 150.074 42.0168 149.593 42.2573 149.112C42.4977 148.631 42.658 148.17 42.6981 147.749C42.7381 147.309 42.678 146.908 42.4977 146.507C42.3174 146.086 42.0369 145.706 41.6361 145.365Z" fill="white"/>
<path d="M35.1643 135.106C35.4047 135.407 35.6251 135.768 35.8656 136.208C36.106 136.649 36.2463 137.13 36.3464 137.651C36.4266 138.172 36.3665 138.693 36.1461 139.234C35.9257 139.775 35.5049 140.316 34.8637 140.817C34.1424 141.398 33.4211 141.718 32.6797 141.779C31.9384 141.839 31.2171 141.678 30.4757 141.318C29.7343 140.957 28.973 140.416 28.2116 139.695C27.4502 138.973 26.6888 138.132 25.9074 137.17L25.0458 137.871C24.7452 138.112 24.5048 138.392 24.3245 138.673C24.1642 138.953 24.1041 139.274 24.1642 139.635C24.2243 139.995 24.4447 140.416 24.8454 140.917C25.2461 141.418 25.6068 141.759 25.9675 141.939C26.3081 142.119 26.6086 142.199 26.8691 142.159C27.1296 142.119 27.35 142.039 27.5504 141.879L27.8309 141.658L29.7343 144.023C29.6742 144.083 29.6141 144.143 29.554 144.203C29.4939 144.263 29.4138 144.323 29.3136 144.403C28.7125 144.884 28.0513 145.125 27.3099 145.125C26.5686 145.125 25.8272 144.884 25.0858 144.423C24.3445 143.963 23.6232 143.321 22.9419 142.48C22.1605 141.518 21.6596 140.616 21.4392 139.775C21.1987 138.933 21.2188 138.172 21.4592 137.451C21.6997 136.749 22.1805 136.108 22.9019 135.547L27.891 131.56C28.1515 131.36 28.2717 131.139 28.2516 130.899C28.2316 130.658 28.1715 130.458 28.0312 130.278L27.4902 129.656L29.1733 128.314C29.3336 128.414 29.554 128.554 29.8345 128.735C30.115 128.935 30.3956 129.216 30.6961 129.596C30.9766 129.937 31.177 130.298 31.2772 130.658C31.3774 131.019 31.3974 131.38 31.3373 131.74C31.2772 132.101 31.1169 132.442 30.8965 132.762L30.9967 132.882C31.4575 132.882 31.9384 132.962 32.3992 133.083C32.8801 133.223 33.3409 133.443 33.8018 133.784C34.2626 134.125 34.7235 134.545 35.1643 135.106ZM32.5595 135.968C32.2389 135.567 31.8983 135.247 31.5176 135.046C31.1369 134.826 30.7763 134.706 30.3956 134.666C30.0149 134.626 29.6342 134.686 29.2334 134.806C28.8327 134.946 28.452 135.146 28.0913 135.447L27.6105 135.828C28.1915 136.569 28.7926 137.21 29.3937 137.751C29.9948 138.292 30.5559 138.653 31.1169 138.813C31.6579 138.973 32.1788 138.873 32.6397 138.493C32.8801 138.292 33.0404 138.072 33.1406 137.811C33.2207 137.551 33.2408 137.27 33.1406 136.95C33.0204 136.649 32.84 136.309 32.5595 135.968Z" fill="white"/>
<path d="M26.4482 122.163C27.1094 123.405 27.43 124.567 27.43 125.629C27.43 126.691 27.0694 127.673 26.348 128.574C25.6468 129.476 24.5648 130.298 23.1422 131.059C21.6995 131.82 20.4172 132.241 19.2751 132.321C18.133 132.401 17.1312 132.141 16.2295 131.54C15.3479 130.959 14.5665 130.037 13.9253 128.815C13.5046 128.013 13.224 127.252 13.0838 126.511C12.9435 125.789 12.9636 125.088 13.1239 124.427C13.2842 123.766 13.6047 123.165 14.0656 122.624C14.5264 122.083 15.1676 121.602 15.949 121.181L17.4518 124.006C16.8907 124.307 16.47 124.627 16.1895 124.988C15.909 125.349 15.7687 125.749 15.7687 126.19C15.7687 126.631 15.8889 127.112 16.1694 127.653C16.49 128.274 16.9108 128.715 17.4117 128.955C17.9126 129.196 18.4937 129.256 19.1549 129.155C19.8161 129.035 20.5975 128.755 21.4591 128.294L21.7596 128.134C22.6012 127.673 23.2624 127.212 23.7433 126.711C24.2242 126.21 24.4846 125.689 24.5447 125.128C24.6049 124.567 24.4646 123.966 24.1039 123.285C23.8234 122.764 23.5028 122.383 23.1422 122.143C22.7615 121.902 22.3407 121.782 21.8799 121.802C21.399 121.822 20.8981 121.962 20.3771 122.263L18.9545 119.578C19.6959 119.177 20.4172 118.937 21.1385 118.857C21.8598 118.777 22.521 118.837 23.1622 119.057C23.8034 119.277 24.4045 119.658 24.9455 120.159C25.5466 120.7 26.0275 121.361 26.4482 122.163Z" fill="white"/>
<path d="M21.9802 111.764C22.2607 112.565 22.3208 113.226 22.1806 113.807C22.0203 114.368 21.7398 114.829 21.2989 115.19C20.8782 115.551 20.3973 115.831 19.8763 116.011L12.4628 118.636L13.0038 120.159L10.5793 121.021L10.0183 119.418L6.27147 120.159L5.42993 117.815L8.99645 116.552L8.21502 114.348L10.6395 113.487L11.4209 115.691L18.5539 113.146C18.8946 113.026 19.135 112.846 19.2552 112.605C19.3754 112.365 19.3754 112.064 19.2552 111.704L18.8545 110.561L20.8982 109.84C21.0184 109.98 21.1587 110.161 21.2989 110.361C21.4392 110.581 21.5795 110.802 21.6997 111.042C21.7999 111.303 21.9 111.523 21.9802 111.764Z" fill="white"/>
<path d="M14.0258 104.831L11.1806 105.292L10.1187 98.86L12.9639 98.3992L14.0258 104.831Z" fill="white"/>
<path d="M17.6122 90.4045L0 88.9819L0.741355 79.725C0.841538 78.4226 1.16212 77.3607 1.66304 76.5392C2.18399 75.7177 2.86524 75.1366 3.72681 74.776C4.58839 74.4153 5.57018 74.2751 6.6722 74.3752C7.81429 74.4754 8.81612 74.796 9.65766 75.3971C10.4992 75.9782 11.1003 76.7796 11.461 77.8215L18.8745 74.7559L18.574 78.4026L11.7615 81.1076L11.3207 86.5776L17.8727 87.0985L17.6122 90.4045ZM8.53561 86.3171L8.99645 80.6467C9.05656 79.7851 8.87623 79.1039 8.41539 78.603C7.95455 78.1021 7.29334 77.8215 6.41172 77.7414C5.8507 77.7013 5.36982 77.7614 4.96909 77.9418C4.56835 78.1221 4.24777 78.3826 4.00733 78.7633C3.76689 79.144 3.62663 79.6248 3.58656 80.2059L3.12572 85.8763L8.53561 86.3171Z" fill="white"/>
<path d="M21.4793 67.7831C21.0585 69.1657 20.4574 70.2276 19.696 71.009C18.9346 71.7704 17.9728 72.2513 16.8308 72.3916C15.6887 72.5519 14.3462 72.3916 12.8034 71.9107C11.2405 71.4298 10.0383 70.8087 9.17676 70.0473C8.31518 69.2859 7.79423 68.3642 7.59386 67.3023C7.3935 66.2403 7.49368 65.0181 7.93449 63.6356C8.31518 62.3933 8.87621 61.4115 9.59753 60.7102C10.3188 60.0089 11.2405 59.5882 12.3425 59.4679C13.4446 59.3477 14.767 59.508 16.3098 59.9889L17.1914 60.2694L14.4865 69.0855C15.308 69.3059 16.0093 69.3861 16.6304 69.346C17.2515 69.3059 17.7524 69.0855 18.1732 68.7249C18.5739 68.3642 18.8945 67.8032 19.135 67.0618C19.2552 66.6811 19.3153 66.3205 19.3153 65.9598C19.3153 65.5992 19.2552 65.2585 19.1149 64.958C18.9947 64.6574 18.7943 64.3769 18.5138 64.1365C18.2534 63.896 17.9127 63.7157 17.492 63.5955L18.3936 60.6501C19.2151 60.9106 19.8763 61.2712 20.3973 61.7321C20.9182 62.213 21.2989 62.7539 21.5193 63.3951C21.7598 64.0363 21.8599 64.7175 21.8599 65.4789C21.8599 66.2003 21.7397 66.9616 21.4793 67.7831ZM12.3826 68.3442L14.1058 62.7139C13.5648 62.5536 13.0839 62.4734 12.6631 62.4734C12.2424 62.4734 11.8817 62.5536 11.5611 62.6938C11.2405 62.8341 10.9801 63.0545 10.7797 63.335C10.5793 63.6155 10.419 63.9561 10.2988 64.3368C10.0984 64.978 10.0383 65.539 10.1185 66.04C10.1986 66.5409 10.419 66.9817 10.7997 67.3423C11.2005 67.723 11.7214 68.0637 12.3826 68.3442Z" fill="white"/>
<path d="M27.5904 62.3933L11.7415 53.8577L12.9837 51.5735L14.6868 52.1946L14.767 52.0343C14.3663 51.313 14.1659 50.5516 14.206 49.7502C14.246 48.9487 14.4664 48.1673 14.8872 47.3858C15.4082 46.404 16.0894 45.6827 16.9109 45.2219C17.7324 44.761 18.6942 44.5807 19.8363 44.6809C20.9583 44.8011 22.2607 45.2419 23.7033 46.0233C25.1259 46.7847 26.1879 47.6263 26.9092 48.5079C27.6105 49.3895 28.0112 50.3112 28.0713 51.2329C28.1314 52.1546 27.9311 53.0562 27.4502 53.9579C27.1496 54.4988 26.829 54.9597 26.4684 55.3604C26.1077 55.7411 25.707 56.0417 25.2662 56.2621C24.8254 56.4825 24.3645 56.6027 23.8636 56.6428L23.7835 56.783L29.0932 59.6483L27.5904 62.3933ZM24.5048 53.6974C24.8655 53.0161 25.0257 52.415 24.9857 51.854C24.9456 51.313 24.6851 50.8121 24.2443 50.3312C23.8035 49.8704 23.1623 49.4095 22.3208 48.9687L22.0002 48.7884C21.1587 48.3276 20.4173 48.047 19.7561 47.9268C19.1149 47.8066 18.5539 47.8667 18.073 48.1272C17.5922 48.3877 17.1714 48.8485 16.8107 49.5298C16.4701 50.1509 16.3499 50.732 16.41 51.293C16.4901 51.854 16.7506 52.375 17.1914 52.8558C17.6322 53.3367 18.2734 53.7976 19.0749 54.2384L19.3554 54.3786C19.9364 54.6992 20.4975 54.9196 21.0184 55.0599C21.5394 55.2001 22.0203 55.2402 22.441 55.2001C22.8818 55.16 23.2625 54.9998 23.6232 54.7593C23.9638 54.5189 24.2644 54.1582 24.5048 53.6974Z" fill="white"/>
<path d="M34.7034 43.4386C33.7817 44.5606 32.8199 45.322 31.8181 45.7428C30.8163 46.1636 29.7543 46.2237 28.6523 45.9231C27.5303 45.6226 26.3681 44.9614 25.1058 43.9395C23.8435 42.8976 22.9619 41.8757 22.481 40.8338C21.9801 39.812 21.8398 38.75 22.0602 37.6881C22.2806 36.6261 22.8417 35.5442 23.7634 34.4221C24.5849 33.4203 25.4865 32.719 26.4082 32.3583C27.3499 31.9776 28.3518 31.9576 29.4137 32.2581C30.4756 32.5587 31.6378 33.2199 32.88 34.2418L33.6014 34.8228L27.7306 41.9358C28.3918 42.4368 29.033 42.7974 29.6141 42.9978C30.1951 43.1982 30.7561 43.1982 31.2771 43.0178C31.7981 42.8375 32.299 42.4368 32.7999 41.8557C33.0604 41.5551 33.2407 41.2346 33.3809 40.8939C33.5212 40.5734 33.5813 40.2327 33.5813 39.8921C33.5813 39.5515 33.5012 39.2309 33.3409 38.9103C33.1806 38.5897 32.9401 38.2892 32.5995 38.0287L34.5631 35.6443C35.2243 36.1853 35.7052 36.7864 36.0057 37.4076C36.3063 38.0487 36.4466 38.7099 36.4065 39.3712C36.3864 40.0524 36.2262 40.7336 35.9256 41.4149C35.6651 42.1162 35.2444 42.7974 34.7034 43.4386ZM26.0876 40.4932L29.8345 35.9449C29.3937 35.5842 28.9929 35.3238 28.5922 35.1835C28.2115 35.0232 27.8308 34.9631 27.4902 34.9831C27.1496 35.0032 26.829 35.1034 26.5284 35.2837C26.2279 35.464 25.9474 35.7045 25.6869 36.025C25.2661 36.546 24.9856 37.0469 24.8654 37.5478C24.7452 38.0487 24.7852 38.5296 25.0056 39.0105C25.226 39.4713 25.5867 39.9723 26.0876 40.4932Z" fill="white"/>
<path d="M42.5177 35.384C42.2172 35.6244 41.8565 35.8648 41.4357 36.1053C40.9949 36.3457 40.5141 36.506 40.0131 36.6062C39.4922 36.7064 38.9712 36.6463 38.4102 36.4459C37.8692 36.2455 37.3282 35.8248 36.8073 35.1836C36.2062 34.4623 35.8856 33.741 35.8055 33.0196C35.7253 32.2783 35.8656 31.557 36.2262 30.7956C36.5668 30.0542 37.1078 29.2928 37.8091 28.5114C38.5104 27.73 39.3519 26.9485 40.2937 26.1671L39.5924 25.3055C39.3319 25.005 39.0714 24.7645 38.7709 24.6042C38.4904 24.4439 38.1497 24.4039 37.7891 24.464C37.4284 24.5241 37.0076 24.7645 36.5268 25.1653C36.0459 25.566 35.7053 25.9467 35.5249 26.3074C35.3446 26.648 35.2845 26.9686 35.3045 27.229C35.3446 27.4895 35.4448 27.7099 35.585 27.8903L35.8055 28.1708L33.4612 30.1143C33.4011 30.0542 33.3409 29.9941 33.2808 29.934C33.2207 29.8739 33.1606 29.7937 33.0805 29.6935C32.5796 29.0924 32.3391 28.4312 32.3391 27.7099C32.3391 26.9886 32.5595 26.2272 33.0003 25.4658C33.4411 24.7044 34.0823 23.9831 34.9038 23.3019C35.8455 22.5204 36.7472 21.9995 37.5887 21.739C38.4302 21.4986 39.1916 21.4785 39.913 21.719C40.6142 21.9594 41.2755 22.4202 41.8565 23.1215L45.944 28.0305C46.1444 28.291 46.3648 28.3912 46.6052 28.3912C46.8456 28.3711 47.046 28.291 47.2063 28.1507L47.8475 27.6298L49.23 29.2928C49.1499 29.4531 49.0096 29.6735 48.8092 29.954C48.6089 30.2345 48.3284 30.5351 47.9677 30.8356C47.6271 31.1161 47.2664 31.3165 46.9057 31.4367C46.5451 31.557 46.1844 31.577 45.8238 31.5169C45.4631 31.4568 45.1225 31.3165 44.8019 31.0961L44.6817 31.1963C44.6817 31.6571 44.6216 32.138 44.5013 32.5989C44.3811 33.0797 44.1407 33.5406 43.8401 34.0014C43.5396 34.4623 43.0587 34.9231 42.5177 35.384ZM41.596 32.7792C41.9968 32.4586 42.2973 32.0979 42.4977 31.7172C42.7181 31.3366 42.8383 30.9559 42.8583 30.5752C42.8784 30.1945 42.8383 29.8138 42.6981 29.413C42.5578 29.0123 42.3374 28.6316 42.0368 28.291L41.6361 27.8101C40.9148 28.4112 40.2736 29.0123 39.7326 29.6134C39.1916 30.2145 38.851 30.7956 38.6907 31.3366C38.5304 31.8976 38.6507 32.3985 39.0314 32.8593C39.2317 33.0998 39.4521 33.2601 39.7126 33.3402C39.9731 33.4204 40.2536 33.4204 40.5742 33.3202C40.9348 33.2601 41.2554 33.0797 41.596 32.7792Z" fill="white"/>
<path d="M53.658 27.3492C52.9366 27.79 52.2955 27.9904 51.6944 27.9503C51.1133 27.9103 50.5924 27.7299 50.1516 27.3693C49.7107 27.0287 49.3501 26.6079 49.0696 26.147L44.9821 19.4147L43.5996 20.2563L42.2571 18.0522L43.6998 17.1706L42.217 13.6442L44.361 12.3418L46.3246 15.5677L48.3282 14.3455L49.6707 16.5495L47.667 17.7717L51.5942 24.2436C51.7745 24.5441 52.015 24.7445 52.2754 24.8046C52.5359 24.8847 52.8365 24.8046 53.157 24.6243L54.1989 24.0031L55.321 25.8465C55.2008 25.9867 55.0605 26.1671 54.8802 26.3474C54.6999 26.5277 54.4995 26.7081 54.2991 26.8884C54.0587 27.0888 53.8583 27.229 53.658 27.3492Z" fill="white"/>
<path d="M58.8275 18.1525L57.7856 15.4676L63.8567 13.1233L64.8987 15.8082L58.8275 18.1525Z" fill="white"/>
</svg>
