<svg width="181" height="182" viewBox="0 0 181 182" fill="none" xmlns="http://www.w3.org/2000/svg">
<path fill-rule="evenodd" clip-rule="evenodd" d="M76.5838 172.372C76.3521 173.533 75.6571 174.124 74.6598 173.924C74.4514 173.892 74.2529 173.813 74.0785 173.695C73.9042 173.577 73.7584 173.422 73.6515 173.241C73.5446 173.061 73.4793 172.859 73.4603 172.65C73.4412 172.441 73.469 172.231 73.5414 172.034L74.6995 166.228L71.6773 165.649L70.5696 171.215C70.338 172.376 69.6429 172.957 68.6355 172.768C67.6281 172.579 67.3259 171.858 67.5273 170.867L68.7155 165.081L65.6933 164.493L64.495 170.549C64.0016 173.022 65.1703 174.933 67.4671 175.371C68.0128 175.523 68.5885 175.534 69.14 175.404C69.6915 175.274 70.2009 175.007 70.6202 174.628C70.8221 175.107 71.1454 175.525 71.5586 175.842C71.9717 176.159 72.4606 176.364 72.9776 176.438C73.4799 176.577 74.0092 176.589 74.5176 176.473C75.026 176.358 75.4973 176.118 75.8889 175.775L75.7077 176.686L78.7299 177.264L80.7439 167.404L77.7217 166.816L76.5838 172.372ZM57.7348 162.257L58.0874 161.356L55.2565 160.237L51.54 169.768L54.3708 170.887L54.7233 169.996C54.9224 170.526 55.2384 171.005 55.648 171.398C56.0577 171.791 56.5507 172.087 57.0908 172.266C59.559 173.265 62.4602 171.872 63.5681 169.029C64.1311 167.786 64.1793 166.373 63.7023 165.096C63.2252 163.819 62.2613 162.78 61.0189 162.204C60.5032 161.966 59.9398 161.847 59.3711 161.856C58.8023 161.866 58.2429 162.002 57.7348 162.257ZM60.7574 167.91C60.6604 168.221 60.4981 168.509 60.2812 168.754C60.0643 168.999 59.7977 169.196 59.499 169.331C59.2002 169.467 58.8761 169.538 58.5478 169.54C58.2196 169.542 57.8946 169.475 57.5943 169.343C57.2774 169.235 56.9871 169.062 56.7428 168.834C56.4985 168.606 56.3057 168.33 56.1771 168.022C56.0485 167.715 55.9871 167.384 55.9969 167.051C56.0068 166.718 56.0876 166.391 56.2341 166.092C56.3286 165.779 56.489 165.491 56.7046 165.245C56.9202 164.999 57.1861 164.802 57.4845 164.666C57.7829 164.53 58.107 164.459 58.4351 164.458C58.7632 164.457 59.0877 164.525 59.3871 164.658C59.7013 164.769 59.9884 164.945 60.2296 165.174C60.4708 165.403 60.6608 165.68 60.7872 165.986C60.9136 166.293 60.9736 166.623 60.9632 166.954C60.9529 167.286 60.8725 167.611 60.7272 167.91L60.7574 167.91ZM51.3981 157.978L49.1317 161.853L48.4967 156.389L45.424 154.71L46.2505 160.945L40.3978 163.531L43.5611 165.261L48.5173 162.905L44.2264 170.254L46.9364 171.744L54.108 159.467L51.3981 157.978Z" fill="#3A4B5B"/>
<path fill-rule="evenodd" clip-rule="evenodd" d="M43.128 159.305C43.5797 158.73 43.9059 158.068 44.0859 157.36C44.2658 156.653 44.2956 155.916 44.1733 155.197C44.051 154.478 43.7793 153.792 43.3755 153.183C42.9717 152.574 42.4447 152.055 41.8279 151.66C41.1791 151.107 40.4006 150.727 39.5642 150.552C38.7279 150.378 37.8607 150.416 37.0427 150.662L38.151 153.244C38.5069 153.195 38.869 153.218 39.2154 153.313C39.5617 153.407 39.8851 153.57 40.1658 153.793C40.6091 154.046 40.9565 154.436 41.1549 154.904C41.3533 155.372 41.3916 155.892 41.2641 156.384L35.5116 152.095C35.2059 152.366 34.9291 152.669 34.6856 152.996C34.2317 153.544 33.8942 154.178 33.6932 154.858C33.4922 155.539 33.4321 156.253 33.5163 156.958C33.6005 157.662 33.8274 158.342 34.1833 158.957C34.5392 159.571 35.0167 160.108 35.5871 160.534C36.1575 160.96 36.8089 161.267 37.5021 161.437C38.1953 161.606 38.9159 161.634 39.6205 161.519C40.3251 161.404 40.9991 161.149 41.6019 160.769C42.2047 160.388 42.7238 159.89 43.128 159.305ZM37.2347 158.229C36.8287 157.954 36.5314 157.547 36.3936 157.078C36.2558 156.609 36.286 156.107 36.479 155.657L39.9647 158.267C39.58 158.586 39.0931 158.757 38.5923 158.75C38.0914 158.743 37.6098 158.558 37.2347 158.229ZM24.2186 149.902L26.3242 152.082L33.5366 144.98L31.4209 142.79L24.2186 149.902ZM22.073 151.595C21.737 151.942 21.5492 152.405 21.5492 152.886C21.5493 153.368 21.7371 153.83 22.0732 154.177C22.2402 154.346 22.4393 154.48 22.6589 154.571C22.8786 154.663 23.1144 154.71 23.3526 154.709C23.5909 154.709 23.8267 154.662 24.0463 154.57C24.266 154.478 24.4651 154.344 24.632 154.175C24.9681 153.828 25.1558 153.365 25.1558 152.884C25.1557 152.402 24.9679 151.939 24.6318 151.593C24.4649 151.424 24.2658 151.29 24.0461 151.199C23.8264 151.107 23.5906 151.06 23.3524 151.061C23.1142 151.061 22.8783 151.108 22.6587 151.2C22.439 151.291 22.2399 151.426 22.073 151.595ZM23.2616 149.192L25.4878 147.268L24.4803 146.008L27.2202 143.644C29.3859 141.781 29.5571 140.099 26.706 137.259L24.5704 139.092C25.4872 140.092 25.9104 140.722 25.2355 141.293L22.4956 143.647L21.1556 142.017L18.9294 143.93L20.2694 145.561L18.1036 147.434L20.7431 149.204L22.2239 147.941L23.2616 149.192ZM25.577 128.402L21.2052 130.897C21.3759 130.36 21.4256 129.791 21.3507 129.233C21.2758 128.674 21.0782 128.139 20.7718 127.665C19.9904 126.58 18.8313 125.822 17.5192 125.539C16.2071 125.255 14.8353 125.466 13.6699 126.13C12.5045 126.794 11.6284 127.864 11.2115 129.133C10.7946 130.401 10.8666 131.778 11.4135 132.997C11.671 133.5 12.0377 133.941 12.4871 134.286C12.9365 134.632 13.4576 134.875 14.0127 134.996L13.1766 135.467L14.698 138.099L27.0984 131.083L25.577 128.402ZM17.6089 132.952C17.1892 133.178 16.7115 133.277 16.2358 133.235C15.7601 133.193 15.3075 133.013 14.9345 132.717C14.5616 132.421 14.2849 132.022 14.1392 131.57C13.9935 131.118 13.9851 130.634 14.1152 130.177C14.2453 129.72 14.508 129.312 14.8705 129.003C15.233 128.694 15.6791 128.497 16.1531 128.439C16.6271 128.38 17.1078 128.462 17.5352 128.673C17.9625 128.885 18.3175 129.217 18.5556 129.628C18.7305 129.904 18.8451 130.212 18.8919 130.535C18.9388 130.857 18.9169 131.186 18.8276 131.499C18.7383 131.813 18.5837 132.104 18.3737 132.354C18.1638 132.604 17.9032 132.808 17.6089 132.952ZM12.9945 124.928C15.795 123.805 17.1749 120.922 15.9154 117.66C15.6523 116.844 15.1883 116.107 14.5655 115.515C13.9427 114.923 13.1808 114.495 12.349 114.269L11.9463 117.082C12.2771 117.228 12.574 117.44 12.8184 117.705C13.0629 117.97 13.2496 118.282 13.3668 118.622C13.6141 119.075 13.7066 119.595 13.6303 120.104C13.554 120.613 13.3131 121.084 12.9439 121.445L10.3141 114.671C9.91054 114.74 9.5154 114.851 9.13551 115.003C8.47359 115.241 7.86652 115.608 7.35039 116.084C6.83426 116.56 6.41962 117.134 6.13114 117.772C5.84266 118.41 5.68621 119.099 5.67113 119.798C5.65605 120.497 5.78263 121.192 6.04335 121.841C6.26955 122.516 6.63449 123.137 7.11502 123.664C7.59556 124.191 8.18119 124.613 8.83477 124.903C9.48835 125.194 10.1956 125.346 10.9117 125.35C11.6278 125.354 12.3371 125.211 12.9945 124.928ZM8.56174 120.858C8.35401 120.41 8.30976 119.905 8.43657 119.428C8.56338 118.951 8.85335 118.533 9.25664 118.245L10.8587 122.348C10.3593 122.415 9.85225 122.302 9.43039 122.029C9.00852 121.755 8.70013 121.339 8.56174 120.858ZM13.0236 109.485L8.59121 110.689C6.647 111.211 5.69993 109.6 5.56888 108.309L2.2345 109.213C2.3524 109.865 2.68411 110.46 3.17794 110.905C3.67177 111.35 4.29997 111.62 4.96469 111.673L3.22195 112.145L4.00793 115.147L13.7693 112.467L13.0236 109.485ZM4.94427 107.839C8.39956 107.246 6.95863 102.323 8.09696 102.142C8.49991 102.072 8.78201 102.402 8.89287 103.142C8.98804 103.518 8.95219 103.914 8.7912 104.267C8.6302 104.62 8.35358 104.908 8.00651 105.085L9.91065 107.485C10.6286 106.934 11.1685 106.186 11.4639 105.334C11.7592 104.482 11.7969 103.563 11.5725 102.69C11.2097 100.488 9.89992 98.6076 7.61319 98.9997C3.91613 99.633 5.48801 104.526 4.35975 104.717C3.9971 104.778 3.74523 104.487 3.65453 103.957C3.60555 103.668 3.6412 103.371 3.75726 103.101C3.87332 102.831 4.06489 102.6 4.30921 102.435L2.5159 100.075C1.90511 100.605 1.44572 101.286 1.18402 102.049C0.922332 102.812 0.867586 103.629 1.02529 104.419C1.36795 106.521 2.76834 108.211 4.94427 107.839ZM5.70921 98.8009C6.78128 98.7538 7.81547 98.3921 8.68118 97.7615C9.5469 97.1309 10.2053 96.2598 10.5733 95.258C10.9413 94.2563 11.0024 93.1689 10.7489 92.1331C10.4953 91.0973 9.93845 90.1596 9.14865 89.4384C8.35885 88.7172 7.37151 88.2448 6.3113 88.0809C5.25109 87.917 4.16555 88.0689 3.19175 88.5175C2.21795 88.966 1.39955 89.6911 0.839908 90.6012C0.280263 91.5113 0.00446556 92.5655 0.0473294 93.6308C0.0705482 94.342 0.236215 95.0413 0.534648 95.688C0.833085 96.3347 1.2583 96.9157 1.78544 97.3971C2.31259 97.8784 2.93109 98.2505 3.6048 98.4915C4.27852 98.7326 4.99392 98.8378 5.70921 98.8009ZM5.38627 91.0644C5.84937 91.0586 6.30384 91.1884 6.69294 91.4377C7.08204 91.6869 7.38853 92.0446 7.57416 92.466C7.75978 92.8875 7.81632 93.354 7.7367 93.8073C7.65708 94.2606 7.44484 94.6807 7.12646 95.0151C6.80809 95.3495 6.3977 95.5834 5.94652 95.6875C5.49534 95.7917 5.02339 95.7615 4.58955 95.6008C4.15571 95.4401 3.77922 95.1559 3.50709 94.7838C3.23497 94.4116 3.07925 93.968 3.05939 93.5083C3.03877 93.1966 3.0825 92.884 3.18788 92.5896C3.29326 92.2953 3.45809 92.0254 3.67222 91.7965C3.88636 91.5676 4.14529 91.3846 4.43312 91.2587C4.72095 91.1329 5.03159 91.0667 5.34599 91.0644L5.38627 91.0644ZM0.097098 85.6037L10.2718 86.5967L10.5738 83.5939L5.01296 83.0577C3.57239 82.9186 2.99811 82.0583 3.10885 80.9973C3.11998 80.7564 3.18346 80.5206 3.29493 80.3063C3.4064 80.092 3.56322 79.9041 3.75462 79.7556C3.94602 79.6072 4.16748 79.5016 4.40377 79.4461C4.64006 79.3907 4.88559 79.3867 5.12351 79.4344L10.9261 80.0004L11.2281 76.9976L4.98225 76.3918C2.23207 76.1237 0.590143 77.6963 0.388815 79.7183C0.297634 80.2625 0.341772 80.8205 0.517394 81.3438C0.693019 81.867 0.994796 82.3395 1.39642 82.7201L0.389028 82.6308L0.097098 85.6037ZM2.37261 69.3777C1.70792 71.9404 3.48111 74.6114 6.49325 75.3798C9.50539 76.1482 12.3562 74.5546 13.0108 71.9918C13.1819 71.4555 13.2282 70.8877 13.1461 70.3312C13.0641 69.7747 12.8558 69.244 12.5371 68.7794L13.484 69.0088L14.2394 66.0757L4.16533 63.6312L3.41001 66.5644L4.34689 66.7939C3.84658 67.0535 3.41015 67.4198 3.06884 67.8664C2.72753 68.3131 2.48978 68.8292 2.37261 69.3777ZM5.39478 69.4854C5.4675 69.1681 5.60543 68.869 5.79993 68.607C5.99444 68.345 6.24132 68.1257 6.52507 67.9629C6.80882 67.8002 7.12332 67.6973 7.44886 67.661C7.77439 67.6246 8.10393 67.6555 8.4168 67.7516C8.74226 67.8019 9.05306 67.9209 9.32828 68.1005C9.60351 68.2801 9.83678 68.5162 10.0124 68.793C10.188 69.0697 10.302 69.3807 10.3465 69.7049C10.391 70.0292 10.3652 70.3592 10.2706 70.6728C10.1993 70.9909 10.0622 71.2909 9.868 71.5537C9.67384 71.8165 9.42685 72.0364 9.14271 72.1994C8.85858 72.3624 8.54348 72.465 8.21742 72.5007C7.89135 72.5363 7.56143 72.5043 7.24857 72.4066C6.92372 72.3545 6.61372 72.2346 6.33905 72.0547C6.06437 71.8748 5.83127 71.639 5.65512 71.3629C5.47897 71.0869 5.3638 70.7768 5.31719 70.4532C5.27058 70.1295 5.29357 69.7997 5.38469 69.4855L5.39478 69.4854ZM15.5285 61.5307L1.56574 56.3568L0.51828 59.2702L14.4709 64.4341L15.5285 61.5307ZM17.6631 47.0764L15.0236 45.6972L11.2364 52.416L13.8758 53.7952L17.6631 47.0764ZM26.6385 42.0851L22.246 38.2651C21.3293 37.4651 21.168 36.5544 21.8429 35.7732C21.9789 35.606 22.1508 35.471 22.346 35.3782C22.5412 35.2854 22.7548 35.2372 22.9711 35.237C23.1875 35.2368 23.4011 35.2848 23.5963 35.3772C23.7916 35.4697 23.9635 35.6044 24.0994 35.7715L28.6834 39.7715L30.698 37.4479L26.3055 33.6279C25.3786 32.828 25.2174 31.9173 25.9023 31.1361C26.0383 30.9688 26.2102 30.8338 26.4054 30.741C26.6006 30.6482 26.8142 30.6 27.0306 30.5998C27.2469 30.5997 27.4605 30.6476 27.6558 30.7401C27.851 30.8325 28.0229 30.9673 28.1589 31.1343L32.7428 35.1343L34.7574 32.8108L29.9821 28.6507C28.0276 26.9508 25.7308 27.0026 24.1695 28.7953C23.7571 29.1972 23.454 29.6964 23.2884 30.2461C23.1228 30.7959 23.1002 31.3783 23.2227 31.9388C22.6946 31.8661 22.1564 31.9336 21.6628 32.1344C21.1692 32.3352 20.7377 32.6621 20.4122 33.082C20.0321 33.4521 19.7511 33.9106 19.5945 34.4158C19.438 34.9211 19.4109 35.4571 19.5159 35.9752L18.8006 35.3452L16.786 37.6788L24.5736 44.4488L26.6385 42.0851ZM39.5624 29.7944C40.0307 29.476 40.4207 29.0567 40.7032 28.5678C40.9858 28.0788 41.1536 27.5329 41.1941 26.9707L41.8087 27.7109L44.2464 25.8273L37.7583 17.9954L35.3206 19.879L35.9251 20.6091C35.355 20.5242 34.7731 20.5617 34.2188 20.7193C33.6644 20.8768 33.1504 21.1507 32.7116 21.5224C32.1972 21.9522 31.7758 22.4812 31.473 23.0773C31.1702 23.6734 30.9923 24.3242 30.95 24.9905C30.9076 25.6567 31.0018 26.3245 31.2268 26.9533C31.4517 27.5822 31.8028 28.159 32.2588 28.649C33.0866 29.746 34.3123 30.4792 35.6758 30.6931C37.0393 30.9069 38.4334 30.5846 39.5624 29.7944ZM35.0488 23.3722C35.3032 23.1603 35.5985 23.0023 35.9166 22.9081C36.2347 22.814 36.5688 22.7856 36.8983 22.8247C37.2278 22.8639 37.5456 22.9697 37.8322 23.1357C38.1188 23.3017 38.3681 23.5244 38.5646 23.7899C38.79 24.0253 38.9614 24.3065 39.0671 24.614C39.1727 24.9215 39.2101 25.2482 39.1766 25.5715C39.1431 25.8949 39.0396 26.2072 38.8732 26.4872C38.7067 26.7671 38.4813 27.0079 38.2123 27.1932C37.958 27.4051 37.6626 27.5631 37.3445 27.6573C37.0264 27.7514 36.6923 27.7798 36.3629 27.7407C36.0334 27.7015 35.7155 27.5957 35.4289 27.4297C35.1423 27.2637 34.893 27.041 34.6965 26.7755C34.4695 26.5409 34.2967 26.2599 34.1901 25.9521C34.0834 25.6444 34.0456 25.3172 34.0791 24.9933C34.1126 24.6694 34.2167 24.3567 34.3842 24.0767C34.5517 23.7968 34.7785 23.5564 35.0488 23.3722ZM47.8225 23.2724L45.4951 19.4508L50.6531 21.6288L53.6751 19.8849L47.7314 17.4873L48.3354 11.3015L45.2328 13.0954L44.8705 18.4204L40.4677 11.1774L37.8083 12.7208L45.1631 24.8058L47.8225 23.2724Z" fill="#3A4B5B"/>
<path fill-rule="evenodd" clip-rule="evenodd" d="M58.0873 18.2803C58.8952 17.9926 59.6185 17.5096 60.1918 16.8748C60.7651 16.2401 61.1704 15.4736 61.3711 14.6446L58.5403 14.3265C58.4023 14.6594 58.1983 14.9613 57.9404 15.2142C57.6825 15.4672 57.3761 15.666 57.0394 15.7989C56.5924 16.0551 56.0741 16.1606 55.562 16.0996C55.0499 16.0386 54.5715 15.8146 54.1985 15.4608L60.9075 12.6232C60.8193 12.2277 60.691 11.8422 60.5246 11.4725C60.2678 10.8233 59.8816 10.2325 59.3894 9.73532C58.8971 9.23813 58.3089 8.84483 57.6598 8.579C57.0108 8.31315 56.3143 8.18023 55.6122 8.18819C54.91 8.19615 54.2166 8.34481 53.5735 8.6253C52.9025 8.87348 52.2908 9.25765 51.7772 9.75338C51.2636 10.2491 50.8595 10.8455 50.5904 11.5048C50.3214 12.1639 50.1933 12.8715 50.2144 13.5823C50.2355 14.2932 50.4053 14.9917 50.713 15.6336C51.9422 18.3751 54.8839 19.654 58.0873 18.2803ZM54.6415 11.0866C55.0868 10.8674 55.595 10.8092 56.0786 10.9221C56.5622 11.035 56.9909 11.3119 57.2909 11.7052L53.2615 13.4197C53.1754 12.9289 53.2693 12.4236 53.5262 11.9955C53.7831 11.5674 54.186 11.2449 54.6616 11.0866L54.6415 11.0866ZM66.649 3.741C67.1188 3.60509 67.5171 3.29292 67.7596 2.87056C68.0021 2.44821 68.0698 1.9488 67.9483 1.47801C67.8928 1.247 67.7918 1.02921 67.6512 0.837184C67.5105 0.645161 67.3331 0.482692 67.1289 0.359123C66.9248 0.235561 66.6981 0.153345 66.4618 0.117202C66.2255 0.0810599 65.9843 0.091697 65.7521 0.148523C65.2826 0.282382 64.8837 0.592121 64.6394 1.01244C64.3951 1.43275 64.3246 1.93078 64.4427 2.4015C64.4983 2.63381 64.5996 2.85288 64.7407 3.0461C64.8818 3.23932 65.0601 3.40288 65.2651 3.52737C65.4701 3.65185 65.698 3.73482 65.9355 3.77148C66.173 3.80814 66.4155 3.79779 66.649 3.741ZM67.8889 14.9899L70.8203 14.227L68.3313 4.24015L65.3999 5.00306L67.8889 14.9899ZM70.0441 6.52084L71.676 6.23934L72.3109 9.76194C72.8148 12.534 74.1849 13.5038 78.1036 12.4198L77.6198 9.72785C76.2901 10.0391 75.5245 10.0898 75.3633 9.22914L74.7283 5.71655L76.8338 5.35461L76.3097 2.50251L74.2144 2.86443L73.7105 0.0823717L70.8194 1.49583L71.162 3.38723L69.5301 3.66872L70.0441 6.52084ZM86.3943 11.2325C86.7725 11.6537 87.2391 11.9875 87.7612 12.2101C88.2834 12.4328 88.8484 12.539 89.4165 12.5213C90.756 12.4022 92.004 11.7945 92.9196 10.8154C93.8353 9.83635 94.3537 8.55527 94.3749 7.21939C94.3961 5.8835 93.9185 4.58751 93.0343 3.58149C92.1502 2.57548 90.9221 1.93074 89.587 1.77169C89.0262 1.73881 88.4649 1.82864 87.9427 2.03484C87.4206 2.24104 86.9502 2.55859 86.5649 2.96506L86.5649 2.01422L83.5427 1.9665L83.2718 16.2092L86.2939 16.2069L86.3943 11.2325ZM88.9425 4.65473C89.4392 4.65042 89.9257 4.7933 90.3401 5.06512C90.7544 5.33693 91.0777 5.72535 91.2687 6.18074C91.4597 6.63613 91.5097 7.13785 91.4123 7.6218C91.3149 8.10577 91.0746 8.55 90.722 8.89778C90.3694 9.24556 89.9205 9.48109 89.4327 9.5743C88.9449 9.66752 88.4403 9.61417 87.9834 9.42109C87.5264 9.228 87.1379 8.90394 86.8673 8.49029C86.5968 8.07664 86.4565 7.59218 86.4645 7.09877C86.4468 6.77174 86.4989 6.44463 86.6175 6.13895C86.736 5.83326 86.9183 5.5559 87.1523 5.32508C87.3863 5.09426 87.6668 4.91519 87.9753 4.79966C88.2839 4.68413 88.6135 4.63474 88.9425 4.65473ZM100.588 13.1833C101.434 13.3522 102.309 13.3125 103.136 13.0675C103.964 12.8226 104.718 12.38 105.333 11.7784L103.107 10.0586C102.81 10.2713 102.474 10.4227 102.117 10.5038C101.761 10.5849 101.392 10.594 101.032 10.5306C100.521 10.5253 100.026 10.353 99.6233 10.0404C99.2209 9.72776 98.9334 9.29214 98.8051 8.80081L106.028 9.79615C106.172 9.41466 106.274 9.01849 106.33 8.61489C106.466 7.93261 106.458 7.23005 106.308 6.55098C106.158 5.87192 105.869 5.23088 105.459 4.66782C105.049 4.10477 104.526 3.63175 103.924 3.27822C103.322 2.92469 102.652 2.69824 101.958 2.61296C101.254 2.47922 100.529 2.48997 99.8293 2.64456C99.1293 2.79915 98.4684 3.09432 97.8872 3.51191C97.306 3.9295 96.8169 4.46069 96.4498 5.07284C96.0827 5.68501 95.8454 6.36521 95.7526 7.07162C95.2995 10.0946 97.113 12.6855 100.588 13.1833ZM101.535 5.31566C102.019 5.36402 102.472 5.57783 102.816 5.92067C103.159 6.26352 103.372 6.71418 103.419 7.19587L99.0366 6.56867C99.2336 6.09756 99.5939 5.71207 100.052 5.48218C100.511 5.25228 101.037 5.1932 101.535 5.31566ZM110.531 10.083C111.055 8.0808 112.908 8.07937 114.077 8.61895L114.973 5.26533C114.343 5.04919 113.659 5.04612 113.027 5.25659C112.395 5.46706 111.85 5.87926 111.478 6.42902L111.941 4.67712L108.989 3.88869L106.371 13.7494L109.313 14.5378L110.531 10.083ZM117.986 14.391C117.845 14.7615 117.412 14.8419 116.707 14.5922C116.346 14.4871 116.031 14.264 115.813 13.9591C115.596 13.6541 115.488 13.2851 115.508 12.9116L112.425 13.3944C112.539 14.2799 112.917 15.1109 113.512 15.7797C114.106 16.4485 114.89 16.9242 115.76 17.1452C117.876 17.9042 120.182 17.6822 121.018 15.5097C122.368 12.0256 117.291 11.0186 117.704 9.94734C117.835 9.60694 118.217 9.53659 118.711 9.71637C118.989 9.81021 119.234 9.98371 119.413 10.2151C119.592 10.4465 119.698 10.7254 119.719 11.0167L122.741 10.6141C122.588 9.83314 122.227 9.10744 121.695 8.51277C121.163 7.9181 120.481 7.47628 119.718 7.23342C117.703 6.50432 115.487 6.89636 114.682 8.94878C113.372 12.1726 118.389 13.3498 117.986 14.391ZM124.716 21.1418C125.652 21.6249 126.712 21.8214 127.761 21.7064C128.81 21.5914 129.802 21.1701 130.61 20.4957C131.419 19.8213 132.008 18.9241 132.304 17.9174C132.6 16.9107 132.589 15.8396 132.273 14.8395C131.956 13.8395 131.348 12.9552 130.526 12.2984C129.704 11.6417 128.704 11.2419 127.653 11.1497C126.602 11.0574 125.546 11.2768 124.62 11.78C123.694 12.2833 122.938 13.0479 122.449 13.9772C122.116 14.5943 121.911 15.271 121.845 15.9676C121.779 16.6643 121.854 17.367 122.065 18.0343C122.277 18.7017 122.62 19.3203 123.075 19.8539C123.53 20.3875 124.088 20.8254 124.716 21.1418ZM125.139 15.3664C125.362 14.9726 125.698 14.6528 126.103 14.4469C126.508 14.241 126.965 14.1581 127.417 14.2087C127.869 14.2592 128.296 14.4408 128.645 14.7309C128.994 15.0211 129.249 15.4068 129.378 15.8401C129.507 16.2734 129.505 16.735 129.372 17.1674C129.239 17.5998 128.981 17.9838 128.63 18.2716C128.279 18.5593 127.851 18.7381 127.398 18.7856C126.946 18.833 126.489 18.7471 126.086 18.5385C125.804 18.4026 125.554 18.2099 125.351 17.9726C125.148 17.7353 124.998 17.4587 124.909 17.1603C124.819 16.8619 124.794 16.5483 124.834 16.2394C124.873 15.9306 124.977 15.6332 125.139 15.3664ZM132.866 25.4794L136.079 20.9029C136.195 20.6593 136.365 20.4453 136.577 20.2772C136.789 20.1091 137.036 19.9914 137.301 19.9333C137.565 19.8751 137.84 19.8779 138.103 19.9415C138.366 20.0051 138.611 20.1279 138.819 20.3003C139.024 20.4343 139.198 20.6103 139.329 20.8166C139.46 21.0229 139.545 21.2547 139.579 21.4963C139.612 21.738 139.593 21.984 139.523 22.2179C139.453 22.4517 139.333 22.668 139.172 22.8522L135.818 27.599L138.276 29.3887L141.892 24.2814C143.484 22.0382 142.899 19.8067 141.267 18.6069C140.855 18.2609 140.366 18.0171 139.841 17.8957C139.316 17.7743 138.768 17.7787 138.245 17.9086L138.799 17.1275L136.341 15.3378L130.448 23.6596L132.866 25.4794ZM142.114 33.4293C142.507 33.8498 142.99 34.1782 143.526 34.3907C144.063 34.6032 144.641 34.6945 145.217 34.658L144.542 35.3591L146.739 37.5093L153.941 30.0873L151.775 27.897L151.1 28.5981C151.11 28.0299 150.995 27.4664 150.762 26.9477C150.528 26.429 150.183 25.9677 149.75 25.5965C149.236 25.1449 148.636 24.7993 147.987 24.5795C147.337 24.3598 146.65 24.2705 145.965 24.3166C145.28 24.3628 144.611 24.5435 143.996 24.8484C143.382 25.1532 142.835 25.5762 142.386 26.0926C141.881 26.5558 141.474 27.1135 141.187 27.7336C140.9 28.3537 140.739 29.024 140.714 29.7059C140.689 30.3878 140.799 31.0678 141.04 31.7068C141.28 32.3458 141.645 32.9312 142.114 33.4293ZM144.592 28.2428C144.812 27.9924 145.081 27.7891 145.383 27.6451C145.684 27.5011 146.012 27.4194 146.346 27.4051C146.68 27.3908 147.014 27.4442 147.327 27.5619C147.639 27.6796 147.925 27.8593 148.165 28.09C148.406 28.3207 148.597 28.5975 148.726 28.9038C148.856 29.2101 148.921 29.5394 148.919 29.8717C148.916 30.204 148.846 30.5324 148.712 30.8369C148.578 31.1414 148.383 31.4157 148.138 31.6431C147.918 31.8935 147.649 32.0968 147.348 32.2408C147.046 32.3848 146.719 32.4665 146.384 32.4808C146.05 32.4951 145.717 32.4417 145.404 32.324C145.091 32.2063 144.806 32.0266 144.565 31.7959C144.325 31.5653 144.134 31.2884 144.004 30.9821C143.875 30.6758 143.809 30.3465 143.812 30.0142C143.814 29.6819 143.885 29.3535 144.019 29.049C144.153 28.7445 144.348 28.4702 144.592 28.2428ZM149.509 40.9102L160.842 31.3231L158.887 28.9825L147.555 38.5696L149.509 40.9102ZM156.984 43.2865L160.964 49.8493L163.412 48.316L159.432 41.7533L156.984 43.2865ZM160.965 60.3385L166.354 58.4627C167.482 58.0715 168.369 58.3811 168.661 59.3517C168.737 59.5502 168.768 59.7629 168.752 59.9748C168.736 60.1866 168.674 60.3924 168.569 60.5777C168.464 60.7629 168.32 60.9231 168.146 61.0469C167.972 61.1708 167.773 61.2552 167.563 61.2943L161.952 63.3003L162.96 66.2121L168.349 64.3363C169.477 63.9451 170.364 64.2547 170.656 65.2253C170.732 65.4239 170.763 65.6366 170.747 65.8484C170.731 66.0602 170.669 66.266 170.564 66.4513C170.459 66.6366 170.315 66.7967 170.141 66.9206C169.967 67.0444 169.768 67.1288 169.558 67.1679L163.947 69.1739L164.955 72.0857L170.818 70.0795C173.205 69.2469 174.283 67.2443 173.527 65.013C173.394 64.4635 173.121 63.9572 172.734 63.5423C172.348 63.1274 171.862 62.8177 171.321 62.6426C171.602 62.2071 171.785 61.7157 171.855 61.2028C171.925 60.69 171.881 60.1682 171.726 59.6742C171.572 59.1801 171.31 58.7258 170.96 58.3431C170.609 57.9605 170.179 57.6588 169.698 57.4593L170.575 57.1483L169.567 54.2365L160.017 57.5768L160.965 60.3385ZM169.911 71.6315C166.839 72.0743 164.804 74.568 165.217 77.17C165.271 77.7251 165.449 78.2611 165.739 78.7388C166.028 79.2165 166.421 79.6239 166.889 79.9311L165.882 80.072L166.356 83.0743L176.702 81.5551L176.238 78.5528L175.231 78.6937C175.596 78.2649 175.858 77.7586 175.996 77.2136C176.134 76.6687 176.144 76.0996 176.026 75.5503C175.653 72.9783 172.933 71.1788 169.911 71.6315ZM173.266 76.6334C173.327 76.9549 173.318 77.2857 173.24 77.6036C173.161 77.9215 173.016 78.2193 172.813 78.4771C172.61 78.7349 172.354 78.9467 172.062 79.0985C171.77 79.2503 171.449 79.3386 171.12 79.3574C170.797 79.4332 170.461 79.4405 170.134 79.3787C169.808 79.3169 169.498 79.1875 169.225 78.9989C168.953 78.8103 168.723 78.5667 168.551 78.2839C168.38 78.0012 168.27 77.6856 168.229 77.3579C168.168 77.0358 168.177 76.7045 168.256 76.386C168.334 76.0676 168.479 75.7692 168.682 75.5106C168.885 75.2521 169.14 75.0393 169.432 74.8864C169.724 74.7335 170.045 74.644 170.375 74.6238C170.694 74.5558 171.025 74.5538 171.345 74.6179C171.666 74.682 171.97 74.8109 172.238 74.9965C172.506 75.1821 172.733 75.4205 172.905 75.6969C173.076 75.9733 173.189 76.2818 173.236 76.6034L173.266 76.6334ZM166.467 87.5582L171.051 87.4846L166.528 90.7509L166.578 94.1339L171.706 90.3266L176.954 93.8657L176.894 90.3827L172.3 87.4636L180.993 87.3168L180.943 84.3242L166.416 84.5656L166.467 87.5582Z" fill="#3A4B5B"/>
<path fill-rule="evenodd" clip-rule="evenodd" d="M170.78 104.309C171.469 104.415 172.174 104.38 172.849 104.206C173.525 104.032 174.158 103.722 174.709 103.296C175.26 102.87 175.718 102.337 176.054 101.729C176.39 101.121 176.597 100.451 176.663 99.7603C176.774 99.0572 176.74 98.3388 176.562 97.6495C176.384 96.9603 176.066 96.3146 175.627 95.7523C175.188 95.1901 174.638 94.7231 174.01 94.3802C173.383 94.0373 172.691 93.8258 171.978 93.7585C168.956 93.4105 166.427 95.2941 166.035 98.7675C165.896 99.6134 165.966 100.48 166.24 101.293C166.514 102.105 166.983 102.839 167.606 103.43L169.268 101.157C168.83 100.587 168.635 99.8682 168.724 99.1558C168.713 98.6458 168.872 98.1462 169.176 97.7351C169.481 97.3239 169.913 97.0241 170.406 96.8825L169.591 104.09C169.978 104.206 170.377 104.279 170.78 104.309ZM172.663 97.0309C173.126 97.2189 173.507 97.5622 173.741 98.0009C173.974 98.4397 174.046 98.9461 173.943 99.4321C173.926 99.926 173.733 100.398 173.4 100.765C173.066 101.131 172.612 101.369 172.119 101.435L172.663 97.0309ZM163.416 112.011L173.158 114.756L173.974 111.783L164.232 109.048L163.416 112.011ZM176.663 112.221C176.431 112.16 176.189 112.144 175.951 112.176C175.712 112.207 175.483 112.286 175.275 112.406C175.067 112.526 174.885 112.686 174.74 112.876C174.594 113.066 174.488 113.283 174.427 113.514C174.298 113.981 174.358 114.48 174.593 114.904C174.828 115.328 175.22 115.644 175.687 115.785C175.922 115.852 176.169 115.871 176.412 115.842C176.655 115.812 176.89 115.735 177.102 115.615C177.315 115.495 177.502 115.333 177.651 115.141C177.801 114.948 177.91 114.728 177.973 114.492C178.097 114.019 178.03 113.516 177.785 113.091C177.54 112.667 177.137 112.354 176.663 112.221ZM172.856 116.118L170.075 115.119L169.511 116.691L166.086 115.432C163.376 114.434 161.835 115.135 160.848 119.13L163.477 120.128C163.86 118.807 164.203 118.126 165.039 118.406L168.464 119.664L167.739 121.667L170.529 122.665L171.244 120.663L173.944 121.632L174.125 118.369L172.292 117.69L172.856 116.118ZM153.988 124.9L158.29 127.429C157.739 127.554 157.223 127.798 156.779 128.144C156.335 128.491 155.974 128.931 155.721 129.433C155.101 130.642 154.982 132.045 155.391 133.34C155.8 134.634 156.703 135.718 157.908 136.357C158.468 136.726 159.097 136.98 159.758 137.103C160.418 137.227 161.097 137.217 161.754 137.076C162.412 136.935 163.034 136.664 163.584 136.28C164.135 135.896 164.602 135.407 164.959 134.84C165.265 134.362 165.463 133.823 165.54 133.262C165.616 132.7 165.569 132.129 165.402 131.587L166.218 132.067L167.739 129.413L155.509 122.256L153.988 124.9ZM161.856 129.508C162.147 129.657 162.404 129.865 162.61 130.118C162.817 130.371 162.968 130.664 163.054 130.979C163.14 131.293 163.16 131.621 163.111 131.944C163.063 132.266 162.948 132.575 162.773 132.85C162.629 133.141 162.423 133.396 162.17 133.601C161.917 133.805 161.623 133.952 161.307 134.033C160.992 134.114 160.662 134.127 160.342 134.07C160.021 134.013 159.716 133.888 159.449 133.704C159.156 133.556 158.897 133.35 158.689 133.097C158.481 132.845 158.328 132.552 158.241 132.237C158.153 131.922 158.133 131.593 158.182 131.27C158.23 130.947 158.346 130.637 158.522 130.361C158.667 130.071 158.874 129.815 159.128 129.611C159.382 129.406 159.677 129.259 159.993 129.178C160.31 129.097 160.64 129.085 160.961 129.142C161.282 129.199 161.588 129.324 161.856 129.508ZM157.031 137.099C156.467 136.632 155.811 136.289 155.105 136.089C154.399 135.889 153.659 135.838 152.932 135.938C152.205 136.038 151.507 136.288 150.882 136.672C150.258 137.055 149.72 137.564 149.305 138.165C148.734 138.795 148.332 139.556 148.135 140.38C147.938 141.204 147.952 142.064 148.177 142.88L150.806 141.878C150.763 141.52 150.796 141.157 150.902 140.812C151.008 140.468 151.184 140.149 151.42 139.875C151.689 139.444 152.093 139.112 152.57 138.93C153.047 138.749 153.57 138.729 154.06 138.872L149.557 144.471C149.819 144.78 150.113 145.062 150.434 145.311C150.974 145.751 151.596 146.079 152.265 146.278C152.934 146.477 153.637 146.542 154.331 146.469C155.026 146.397 155.699 146.188 156.312 145.854C156.925 145.521 157.466 145.071 157.902 144.529C158.339 143.987 158.663 143.364 158.855 142.697C159.048 142.029 159.106 141.331 159.025 140.642C158.944 139.953 158.726 139.286 158.383 138.681C158.041 138.077 157.582 137.545 157.031 137.119L157.031 137.099ZM155.762 142.905C155.477 143.304 155.059 143.591 154.582 143.716C154.105 143.84 153.6 143.795 153.153 143.587L155.883 140.202C156.194 140.591 156.353 141.079 156.331 141.575C156.309 142.072 156.107 142.544 155.762 142.905ZM143.724 144.836L146.989 148.006C148.419 149.406 147.513 151.008 146.465 151.75L148.933 154.16C149.425 153.729 149.762 153.152 149.894 152.515C150.027 151.877 149.948 151.215 149.668 150.626L150.968 151.886L153.134 149.753L145.87 142.662L143.724 144.836ZM139.564 152.796C139.313 152.486 139.443 152.085 140.008 151.624C140.281 151.36 140.638 151.197 141.018 151.164C141.398 151.131 141.778 151.229 142.093 151.443L143.16 148.629C142.348 148.278 141.448 148.177 140.577 148.34C139.705 148.503 138.903 148.923 138.275 149.544C136.603 150.936 135.666 153.019 137.157 154.759C139.545 157.63 142.879 153.874 143.614 154.754C143.846 155.035 143.725 155.395 143.322 155.756C143.098 155.935 142.827 156.046 142.54 156.075C142.254 156.103 141.966 156.049 141.71 155.917L140.613 158.63C141.357 158.894 142.16 158.953 142.936 158.803C143.712 158.653 144.434 158.298 145.025 157.776C146.637 156.444 147.362 154.411 145.951 152.721C143.725 150.01 140.28 153.656 139.564 152.796ZM130.337 155.025C129.445 155.584 128.739 156.393 128.31 157.35C127.88 158.307 127.746 159.369 127.924 160.401C128.102 161.434 128.585 162.39 129.31 163.15C130.036 163.909 130.972 164.438 132.001 164.668C133.029 164.899 134.103 164.821 135.088 164.445C136.072 164.068 136.922 163.41 137.53 162.554C138.138 161.698 138.477 160.682 138.504 159.635C138.531 158.587 138.244 157.556 137.681 156.671C137.311 156.08 136.827 155.568 136.256 155.165C135.685 154.762 135.04 154.475 134.356 154.322C133.673 154.169 132.966 154.152 132.276 154.273C131.586 154.393 130.927 154.649 130.337 155.025ZM134.478 161.487C133.944 161.805 133.306 161.903 132.701 161.761C132.096 161.619 131.57 161.247 131.237 160.726C130.903 160.204 130.788 159.574 130.915 158.969C131.043 158.363 131.403 157.831 131.919 157.486C132.176 157.31 132.468 157.189 132.775 157.131C133.082 157.073 133.398 157.08 133.702 157.15C134.007 157.221 134.293 157.354 134.543 157.54C134.792 157.727 135 157.963 135.152 158.234C135.345 158.488 135.482 158.781 135.552 159.091C135.623 159.402 135.627 159.724 135.563 160.036C135.499 160.348 135.369 160.644 135.182 160.902C134.995 161.161 134.755 161.378 134.478 161.538L134.478 161.487ZM122.47 159.745L124.797 164.798C124.952 165.023 125.053 165.28 125.093 165.55C125.132 165.819 125.11 166.094 125.026 166.354C124.942 166.614 124.8 166.851 124.611 167.048C124.421 167.245 124.188 167.397 123.931 167.491C123.715 167.598 123.478 167.659 123.237 167.669C122.996 167.678 122.755 167.637 122.531 167.547C122.307 167.458 122.105 167.322 121.938 167.148C121.772 166.975 121.644 166.768 121.563 166.542L119.125 161.259L116.305 162.522L118.924 168.215C120.083 170.717 122.309 171.326 124.213 170.473C124.733 170.281 125.201 169.969 125.577 169.564C125.953 169.158 126.228 168.67 126.379 168.14L126.782 169.01L129.602 167.737L125.33 158.482L122.47 159.745ZM111.016 163.777C110.457 163.898 109.933 164.14 109.48 164.487C109.027 164.833 108.657 165.276 108.397 165.781L108.125 164.861L105.103 165.704L107.995 175.53L111.017 174.677L110.745 173.767C111.24 174.062 111.794 174.246 112.368 174.306C112.942 174.366 113.523 174.301 114.069 174.114C114.718 173.905 115.319 173.569 115.835 173.126C116.352 172.683 116.775 172.143 117.079 171.536C117.383 170.928 117.562 170.267 117.605 169.591C117.649 168.914 117.556 168.236 117.333 167.596C117.171 166.933 116.879 166.308 116.474 165.757C116.069 165.207 115.558 164.74 114.971 164.386C114.385 164.031 113.734 163.795 113.055 163.691C112.376 163.586 111.683 163.616 111.016 163.777ZM112.638 171.503C112.323 171.61 111.988 171.649 111.656 171.618C111.324 171.588 111.002 171.489 110.711 171.326C110.42 171.164 110.167 170.943 109.968 170.677C109.769 170.412 109.629 170.107 109.556 169.784C109.442 169.475 109.395 169.144 109.42 168.816C109.445 168.487 109.54 168.167 109.699 167.878C109.859 167.589 110.078 167.337 110.344 167.139C110.609 166.941 110.914 166.801 111.238 166.73C111.549 166.632 111.878 166.598 112.203 166.632C112.528 166.666 112.842 166.766 113.126 166.927C113.41 167.088 113.657 167.305 113.852 167.565C114.048 167.825 114.186 168.123 114.26 168.439C114.375 168.745 114.423 169.072 114.402 169.398C114.381 169.724 114.291 170.042 114.138 170.331C113.985 170.62 113.773 170.874 113.514 171.076C113.256 171.278 112.957 171.423 112.638 171.503ZM100.952 166.438L103.462 181.049L106.393 180.516L103.884 165.905L100.952 166.438ZM87.2021 175.116L94.8381 174.91L94.7573 172.137L87.1214 172.343L87.2021 175.116Z" fill="#3A4B5B"/>
</svg>
