<svg width="203" height="23" viewBox="0 0 203 23" fill="none" xmlns="http://www.w3.org/2000/svg">
<mask id="path-1-outside-1_165_33" maskUnits="userSpaceOnUse" x="-0.485352" y="-1.70728" width="204" height="26" fill="black">
<rect fill="white" x="-0.485352" y="-1.70728" width="204" height="26"/>
<path d="M0.533361 0.552748H4.81924V22.2927H0.533361V0.552748ZM21.4217 0.552748H25.7076V22.2927H22.4466L13.1294 9.00028V22.2927H8.84356V0.552748H12.1046L21.4217 13.8141V0.552748ZM37.163 22.7275C35.0097 22.7275 33.1981 22.2513 31.728 21.2989C30.258 20.3258 29.2228 19.011 28.6223 17.3546L32.2871 15.2117C33.136 17.4271 34.8027 18.5348 37.2873 18.5348C38.4881 18.5348 39.3681 18.3174 39.9271 17.8826C40.4861 17.4478 40.7657 16.8991 40.7657 16.2366C40.7657 15.4705 40.424 14.8804 39.7408 14.4663C39.0575 14.0315 37.8359 13.5657 36.076 13.0688C35.1029 12.7789 34.2747 12.489 33.5915 12.1992C32.9289 11.9093 32.256 11.5263 31.5728 11.0501C30.9102 10.5531 30.4029 9.932 30.051 9.18662C29.699 8.44125 29.523 7.57165 29.523 6.57783C29.523 4.61088 30.2166 3.04767 31.6038 1.8882C33.0117 0.708034 34.6992 0.117948 36.6661 0.117948C38.426 0.117948 39.9685 0.552748 41.2936 1.42235C42.6394 2.27124 43.685 3.46176 44.4304 4.99391L40.8278 7.07474C39.9582 5.21131 38.571 4.2796 36.6661 4.2796C35.7758 4.2796 35.0719 4.48665 34.5542 4.90074C34.0573 5.29413 33.8089 5.81175 33.8089 6.4536C33.8089 7.13685 34.0884 7.69588 34.6474 8.13068C35.2271 8.54478 36.3245 9.00028 37.9395 9.4972C38.602 9.70424 39.0989 9.86988 39.4302 9.99411C39.7822 10.0976 40.248 10.2736 40.8278 10.5221C41.4282 10.7498 41.8837 10.9672 42.1943 11.1743C42.5256 11.3813 42.8983 11.6608 43.3123 12.0128C43.7264 12.3648 44.037 12.7271 44.2441 13.0998C44.4718 13.4725 44.6582 13.928 44.8031 14.4663C44.9687 14.984 45.0515 15.5533 45.0515 16.1745C45.0515 18.1828 44.3165 19.7771 42.8465 20.9573C41.3972 22.1374 39.5027 22.7275 37.163 22.7275ZM62.2264 0.552748V4.65229H56.3566V22.2927H52.0707V4.65229H46.232V0.552748H62.2264ZM76.5449 22.2927L72.1659 14.7458H68.9049V22.2927H64.619V0.552748H73.315C75.3233 0.552748 77.0315 1.25671 78.4394 2.66463C79.8473 4.07255 80.5513 5.77034 80.5513 7.758C80.5513 9.10381 80.1682 10.3564 79.4022 11.5159C78.6361 12.6547 77.6216 13.5139 76.3586 14.0936L81.1724 22.2927H76.5449ZM68.9049 4.55911V10.9879H73.315C74.1225 10.9879 74.8161 10.6774 75.3958 10.0562C75.9755 9.41438 76.2654 8.6483 76.2654 7.758C76.2654 6.86769 75.9755 6.11197 75.3958 5.49083C74.8161 4.86969 74.1225 4.55911 73.315 4.55911H68.9049ZM91.8019 22.7275C89.3795 22.7275 87.3918 22.0443 85.839 20.6778C84.2861 19.3112 83.5097 17.4789 83.5097 15.1806V0.552748H87.7645V14.839C87.7645 15.9778 88.0854 16.8784 88.7273 17.541C89.3898 18.2035 90.4147 18.5348 91.8019 18.5348C93.1892 18.5348 94.2037 18.2035 94.8455 17.541C95.5081 16.8784 95.8394 15.9778 95.8394 14.839V0.552748H100.125V15.1806C100.125 17.4789 99.3488 19.3112 97.796 20.6778C96.2431 22.0443 94.2451 22.7275 91.8019 22.7275ZM114.297 22.7275C111.026 22.7275 108.324 21.6405 106.191 19.4665C104.059 17.2925 102.992 14.6113 102.992 11.4227C102.992 8.2135 104.059 5.53224 106.191 3.37895C108.324 1.20495 111.026 0.117948 114.297 0.117948C116.264 0.117948 118.076 0.583805 119.732 1.51552C121.409 2.42653 122.714 3.66881 123.645 5.24237L119.95 7.38531C119.411 6.41219 118.645 5.65647 117.651 5.11814C116.658 4.55911 115.54 4.2796 114.297 4.2796C112.185 4.2796 110.477 4.94215 109.173 6.26726C107.889 7.59236 107.247 9.31085 107.247 11.4227C107.247 13.5139 107.889 15.2221 109.173 16.5472C110.477 17.8723 112.185 18.5348 114.297 18.5348C115.54 18.5348 116.658 18.2657 117.651 17.7273C118.666 17.1683 119.432 16.4126 119.95 15.4602L123.645 17.6031C122.714 19.1767 121.42 20.4293 119.763 21.361C118.107 22.272 116.285 22.7275 114.297 22.7275ZM140.9 0.552748V4.65229H135.031V22.2927H130.745V4.65229H124.906V0.552748H140.9ZM161.586 19.4665C159.391 21.6405 156.72 22.7275 153.573 22.7275C150.426 22.7275 147.755 21.6405 145.56 19.4665C143.386 17.2718 142.299 14.5906 142.299 11.4227C142.299 8.25491 143.386 5.584 145.56 3.41C147.755 1.2153 150.426 0.117948 153.573 0.117948C156.72 0.117948 159.391 1.2153 161.586 3.41C163.78 5.584 164.878 8.25491 164.878 11.4227C164.878 14.5906 163.78 17.2718 161.586 19.4665ZM148.573 16.5472C149.918 17.8723 151.585 18.5348 153.573 18.5348C155.561 18.5348 157.227 17.8723 158.573 16.5472C159.919 15.2014 160.592 13.4932 160.592 11.4227C160.592 9.35226 159.919 7.64412 158.573 6.29831C157.227 4.9525 155.561 4.2796 153.573 4.2796C151.585 4.2796 149.918 4.9525 148.573 6.29831C147.227 7.64412 146.554 9.35226 146.554 11.4227C146.554 13.4932 147.227 15.2014 148.573 16.5472ZM179.816 22.2927L175.437 14.7458H172.176V22.2927H167.89V0.552748H176.586C178.594 0.552748 180.302 1.25671 181.71 2.66463C183.118 4.07255 183.822 5.77034 183.822 7.758C183.822 9.10381 183.439 10.3564 182.673 11.5159C181.907 12.6547 180.893 13.5139 179.63 14.0936L184.443 22.2927H179.816ZM172.176 4.55911V10.9879H176.586C177.393 10.9879 178.087 10.6774 178.667 10.0562C179.246 9.41438 179.536 8.6483 179.536 7.758C179.536 6.86769 179.246 6.11197 178.667 5.49083C178.087 4.86969 177.393 4.55911 176.586 4.55911H172.176ZM194.39 22.7275C192.236 22.7275 190.425 22.2513 188.955 21.2989C187.485 20.3258 186.449 19.011 185.849 17.3546L189.514 15.2117C190.363 17.4271 192.029 18.5348 194.514 18.5348C195.715 18.5348 196.595 18.3174 197.154 17.8826C197.713 17.4478 197.992 16.8991 197.992 16.2366C197.992 15.4705 197.651 14.8804 196.967 14.4663C196.284 14.0315 195.063 13.5657 193.303 13.0688C192.33 12.7789 191.501 12.489 190.818 12.1992C190.156 11.9093 189.483 11.5263 188.799 11.0501C188.137 10.5531 187.63 9.932 187.278 9.18662C186.926 8.44125 186.75 7.57165 186.75 6.57783C186.75 4.61088 187.443 3.04767 188.83 1.8882C190.238 0.708034 191.926 0.117948 193.893 0.117948C195.653 0.117948 197.195 0.552748 198.52 1.42235C199.866 2.27124 200.912 3.46176 201.657 4.99391L198.054 7.07474C197.185 5.21131 195.798 4.2796 193.893 4.2796C193.002 4.2796 192.298 4.48665 191.781 4.90074C191.284 5.29413 191.035 5.81175 191.035 6.4536C191.035 7.13685 191.315 7.69588 191.874 8.13068C192.454 8.54478 193.551 9.00028 195.166 9.4972C195.829 9.70424 196.326 9.86988 196.657 9.99411C197.009 10.0976 197.475 10.2736 198.054 10.5221C198.655 10.7498 199.11 10.9672 199.421 11.1743C199.752 11.3813 200.125 11.6608 200.539 12.0128C200.953 12.3648 201.264 12.7271 201.471 13.0998C201.698 13.4725 201.885 13.928 202.03 14.4663C202.195 14.984 202.278 15.5533 202.278 16.1745C202.278 18.1828 201.543 19.7771 200.073 20.9573C198.624 22.1374 196.729 22.7275 194.39 22.7275Z"/>
</mask>
<path d="M0.533361 0.552748V-0.417787H-0.437174V0.552748H0.533361ZM4.81924 0.552748H5.78978V-0.417787H4.81924V0.552748ZM4.81924 22.2927V23.2633H5.78978V22.2927H4.81924ZM0.533361 22.2927H-0.437174V23.2633H0.533361V22.2927ZM0.533361 1.52328H4.81924V-0.417787H0.533361V1.52328ZM3.84871 0.552748V22.2927H5.78978V0.552748H3.84871ZM4.81924 21.3222H0.533361V23.2633H4.81924V21.3222ZM1.5039 22.2927V0.552748H-0.437174V22.2927H1.5039ZM21.4217 0.552748V-0.417787H20.4512V0.552748H21.4217ZM25.7076 0.552748H26.6781V-0.417787H25.7076V0.552748ZM25.7076 22.2927V23.2633H26.6781V22.2927H25.7076ZM22.4466 22.2927L21.6518 22.8498L21.9416 23.2633H22.4466V22.2927ZM13.1294 9.00028L13.9242 8.44322L12.1589 5.92475V9.00028H13.1294ZM13.1294 22.2927V23.2633H14.1V22.2927H13.1294ZM8.84356 22.2927H7.87303V23.2633H8.84356V22.2927ZM8.84356 0.552748V-0.417787H7.87303V0.552748H8.84356ZM12.1046 0.552748L12.8987 -0.00518942L12.6088 -0.417787H12.1046V0.552748ZM21.4217 13.8141L20.6276 14.3721L22.3922 16.8838V13.8141H21.4217ZM21.4217 1.52328H25.7076V-0.417787H21.4217V1.52328ZM24.737 0.552748V22.2927H26.6781V0.552748H24.737ZM25.7076 21.3222H22.4466V23.2633H25.7076V21.3222ZM23.2413 21.7357L13.9242 8.44322L12.3347 9.55734L21.6518 22.8498L23.2413 21.7357ZM12.1589 9.00028V22.2927H14.1V9.00028H12.1589ZM13.1294 21.3222H8.84356V23.2633H13.1294V21.3222ZM9.8141 22.2927V0.552748H7.87303V22.2927H9.8141ZM8.84356 1.52328H12.1046V-0.417787H8.84356V1.52328ZM11.3104 1.11068L20.6276 14.3721L22.2158 13.2562L12.8987 -0.00518942L11.3104 1.11068ZM22.3922 13.8141V0.552748H20.4512V13.8141H22.3922ZM31.728 21.2989L31.1923 22.1082L31.2003 22.1134L31.728 21.2989ZM28.6223 17.3546L28.1324 16.5168L27.4343 16.9251L27.7099 17.6854L28.6223 17.3546ZM32.2871 15.2117L33.1934 14.8644L32.7842 13.7967L31.7972 14.3739L32.2871 15.2117ZM39.9271 17.8826L39.3313 17.1165L39.9271 17.8826ZM39.7408 14.4663L39.2197 15.2851L39.2287 15.2908L39.2377 15.2963L39.7408 14.4663ZM36.076 13.0688L35.7989 13.999L35.8123 14.0028L36.076 13.0688ZM33.5915 12.1992L33.2024 13.0884L33.2124 13.0926L33.5915 12.1992ZM31.5728 11.0501L30.9904 11.8265L31.004 11.8366L31.0178 11.8463L31.5728 11.0501ZM30.051 9.18662L29.1734 9.60105L30.051 9.18662ZM31.6038 1.8882L32.2262 2.63288L32.2273 2.63199L31.6038 1.8882ZM41.2936 1.42235L40.7611 2.23376L40.7685 2.23856L40.7758 2.24322L41.2936 1.42235ZM44.4304 4.99391L44.9158 5.83434L45.6986 5.38222L45.3031 4.56934L44.4304 4.99391ZM40.8278 7.07474L39.9483 7.48517L40.3961 8.44484L41.3132 7.91516L40.8278 7.07474ZM34.5542 4.90074L35.1567 5.6617L35.1605 5.6586L34.5542 4.90074ZM34.6474 8.13068L34.0516 8.89678L34.0672 8.90893L34.0833 8.92044L34.6474 8.13068ZM37.9395 9.4972L38.229 8.57083L38.2249 8.56958L37.9395 9.4972ZM39.4302 9.99411L39.0894 10.9028L39.1225 10.9152L39.1564 10.9252L39.4302 9.99411ZM40.8278 10.5221L40.4455 11.4141L40.4644 11.4222L40.4836 11.4295L40.8278 10.5221ZM42.1943 11.1743L41.6559 11.9818L41.6678 11.9897L41.6799 11.9973L42.1943 11.1743ZM43.3123 12.0128L43.9409 11.2733L43.3123 12.0128ZM44.2441 13.0998L43.3957 13.5712L43.4054 13.5887L43.4159 13.6059L44.2441 13.0998ZM44.8031 14.4663L43.8659 14.7186L43.8718 14.7405L43.8787 14.7621L44.8031 14.4663ZM42.8465 20.9573L42.2389 20.2004L42.2337 20.2047L42.8465 20.9573ZM37.163 21.757C35.1539 21.757 33.536 21.3138 32.2558 20.4844L31.2003 22.1134C32.8602 23.1888 34.8656 23.6981 37.163 23.6981V21.757ZM32.2638 20.4896C30.9673 19.6314 30.0642 18.4843 29.5348 17.0239L27.7099 17.6854C28.3814 19.5377 29.5487 21.0202 31.1923 22.1082L32.2638 20.4896ZM29.1122 18.1925L32.777 16.0495L31.7972 14.3739L28.1324 16.5168L29.1122 18.1925ZM31.3808 15.559C31.8637 16.8191 32.6059 17.8274 33.6366 18.5123C34.6638 19.195 35.9002 19.5053 37.2873 19.5053V17.5643C36.1898 17.5643 35.3505 17.3208 34.711 16.8957C34.0749 16.473 33.5594 15.8197 33.1934 14.8644L31.3808 15.559ZM37.2873 19.5053C38.5678 19.5053 39.7106 19.2806 40.523 18.6487L39.3313 17.1165C39.0256 17.3543 38.4085 17.5643 37.2873 17.5643V19.5053ZM40.523 18.6487C41.2996 18.0447 41.7362 17.2217 41.7362 16.2366H39.7951C39.7951 16.5766 39.6727 16.851 39.3313 17.1165L40.523 18.6487ZM41.7362 16.2366C41.7362 15.1138 41.2021 14.2171 40.2438 13.6363L39.2377 15.2963C39.646 15.5437 39.7951 15.8273 39.7951 16.2366H41.7362ZM40.2618 13.6475C39.4485 13.1299 38.1056 12.6333 36.3398 12.1347L35.8123 14.0028C37.5663 14.498 38.6666 14.9331 39.2197 15.2851L40.2618 13.6475ZM36.3531 12.1386C35.403 11.8556 34.6109 11.5774 33.9705 11.3057L33.2124 13.0926C33.9385 13.4007 34.8028 13.7022 35.799 13.9989L36.3531 12.1386ZM33.9805 11.31C33.3841 11.0491 32.7665 10.699 32.1277 10.2538L31.0178 11.8463C31.7455 12.3535 32.4737 12.7695 33.2025 13.0883L33.9805 11.31ZM32.1551 10.2736C31.6183 9.87107 31.2127 9.37396 30.9286 8.7722L29.1734 9.60105C29.5932 10.49 30.2021 11.2352 30.9904 11.8265L32.1551 10.2736ZM30.9286 8.7722C30.6491 8.18032 30.4935 7.45736 30.4935 6.57783H28.5525C28.5525 7.68595 28.7489 8.70219 29.1734 9.60105L30.9286 8.7722ZM30.4935 6.57783C30.4935 4.8697 31.0808 3.59029 32.2262 2.63288L30.9814 1.14353C29.3524 2.50505 28.5525 4.35205 28.5525 6.57783H30.4935ZM32.2273 2.63199C33.4476 1.60908 34.9098 1.08848 36.6661 1.08848V-0.852587C34.4885 -0.852587 32.5759 -0.193017 30.9803 1.14442L32.2273 2.63199ZM36.6661 1.08848C38.2585 1.08848 39.6114 1.47925 40.7611 2.23376L41.8261 0.610933C40.3256 -0.373756 38.5936 -0.852587 36.6661 -0.852587V1.08848ZM40.7758 2.24322C41.9578 2.98878 42.8856 4.03693 43.5577 5.41849L45.3031 4.56934C44.4845 2.8866 43.321 1.5537 41.8114 0.60147L40.7758 2.24322ZM43.945 4.15349L40.3424 6.23432L41.3132 7.91516L44.9158 5.83434L43.945 4.15349ZM41.7073 6.66432C41.2149 5.60931 40.547 4.75748 39.6763 4.17271C38.801 3.58486 37.7835 3.30907 36.6661 3.30907V5.25014C37.4536 5.25014 38.0821 5.4402 38.594 5.78406C39.1106 6.131 39.571 6.67675 39.9483 7.48517L41.7073 6.66432ZM36.6661 3.30907C35.6309 3.30907 34.6886 3.55039 33.948 4.14288L35.1605 5.6586C35.4551 5.42291 35.9207 5.25014 36.6661 5.25014V3.30907ZM33.9518 4.1398C33.219 4.71999 32.8383 5.51959 32.8383 6.4536H34.7794C34.7794 6.10391 34.8957 5.86828 35.1567 5.66169L33.9518 4.1398ZM32.8383 6.4536C32.8383 7.44887 33.2662 8.28593 34.0516 8.89678L35.2433 7.36459C34.9106 7.10584 34.7794 6.82484 34.7794 6.4536H32.8383ZM34.0833 8.92044C34.8039 9.43516 36.0387 9.92778 37.654 10.4248L38.2249 8.56958C36.6103 8.07278 35.6504 7.65439 35.2115 7.34093L34.0833 8.92044ZM37.65 10.4236C38.3083 10.6293 38.7843 10.7884 39.0894 10.9028L39.771 9.08537C39.4136 8.95134 38.8957 8.77921 38.229 8.57084L37.65 10.4236ZM39.1564 10.9252C39.4545 11.0129 39.8799 11.1717 40.4455 11.4141L41.2101 9.63002C40.6162 9.37551 40.1099 9.18238 39.7041 9.06301L39.1564 10.9252ZM40.4836 11.4295C41.0571 11.6471 41.4343 11.834 41.6559 11.9818L42.7326 10.3667C42.3331 10.1004 41.7994 9.85261 41.172 9.61463L40.4836 11.4295ZM41.6799 11.9973C41.9591 12.1718 42.2929 12.42 42.6838 12.7523L43.9409 11.2733C43.5036 10.9016 43.0921 10.5909 42.7087 10.3513L41.6799 11.9973ZM42.6838 12.7523C43.0324 13.0486 43.2584 13.324 43.3957 13.5712L45.0925 12.6285C44.8157 12.1303 44.4205 11.681 43.9409 11.2733L42.6838 12.7523ZM43.4159 13.6059C43.5842 13.8813 43.7388 14.2463 43.8659 14.7186L45.7402 14.214C45.5776 13.6097 45.3594 13.0637 45.0722 12.5937L43.4159 13.6059ZM43.8787 14.7621C44.0098 15.1716 44.081 15.6396 44.081 16.1745H46.0221C46.0221 15.467 45.9277 14.7963 45.7274 14.1705L43.8787 14.7621ZM44.081 16.1745C44.081 17.9107 43.4628 19.2179 42.2389 20.2004L43.4541 21.7141C45.1703 20.3363 46.0221 18.455 46.0221 16.1745H44.081ZM42.2337 20.2047C40.9974 21.2113 39.337 21.757 37.163 21.757V23.6981C39.6683 23.6981 41.7969 23.0635 43.4593 21.7099L42.2337 20.2047ZM62.2264 0.552748H63.1969V-0.417787H62.2264V0.552748ZM62.2264 4.65229V5.62282H63.1969V4.65229H62.2264ZM56.3566 4.65229V3.68175H55.386V4.65229H56.3566ZM56.3566 22.2927V23.2633H57.3271V22.2927H56.3566ZM52.0707 22.2927H51.1002V23.2633H52.0707V22.2927ZM52.0707 4.65229H53.0412V3.68175H52.0707V4.65229ZM46.232 4.65229H45.2614V5.62282H46.232V4.65229ZM46.232 0.552748V-0.417787H45.2614V0.552748H46.232ZM61.2558 0.552748V4.65229H63.1969V0.552748H61.2558ZM62.2264 3.68175H56.3566V5.62282H62.2264V3.68175ZM55.386 4.65229V22.2927H57.3271V4.65229H55.386ZM56.3566 21.3222H52.0707V23.2633H56.3566V21.3222ZM53.0412 22.2927V4.65229H51.1002V22.2927H53.0412ZM52.0707 3.68175H46.232V5.62282H52.0707V3.68175ZM47.2025 4.65229V0.552748H45.2614V4.65229H47.2025ZM46.232 1.52328H62.2264V-0.417787H46.232V1.52328ZM76.5449 22.2927L75.7055 22.7798L75.986 23.2633H76.5449V22.2927ZM72.1659 14.7458L73.0053 14.2588L72.7248 13.7753H72.1659V14.7458ZM68.9049 14.7458V13.7753H67.9343V14.7458H68.9049ZM68.9049 22.2927V23.2633H69.8754V22.2927H68.9049ZM64.619 22.2927H63.6484V23.2633H64.619V22.2927ZM64.619 0.552748V-0.417787H63.6484V0.552748H64.619ZM78.4394 2.66463L79.1257 1.97836V1.97836L78.4394 2.66463ZM79.4022 11.5159L80.2075 12.0577L80.2119 12.0509L79.4022 11.5159ZM76.3586 14.0936L75.9537 13.2116L74.9781 13.6594L75.5216 14.585L76.3586 14.0936ZM81.1724 22.2927V23.2633H82.8677L82.0094 21.8013L81.1724 22.2927ZM68.9049 4.55911V3.58858H67.9343V4.55911H68.9049ZM68.9049 10.9879H67.9343V11.9585H68.9049V10.9879ZM75.3958 10.0562L76.1053 10.7184L76.1107 10.7126L76.116 10.7068L75.3958 10.0562ZM75.3958 5.49083L74.6863 6.15304L75.3958 5.49083ZM77.3844 21.8056L73.0053 14.2588L71.3264 15.2329L75.7055 22.7798L77.3844 21.8056ZM72.1659 13.7753H68.9049V15.7164H72.1659V13.7753ZM67.9343 14.7458V22.2927H69.8754V14.7458H67.9343ZM68.9049 21.3222H64.619V23.2633H68.9049V21.3222ZM65.5895 22.2927V0.552748H63.6484V22.2927H65.5895ZM64.619 1.52328H73.315V-0.417787H64.619V1.52328ZM73.315 1.52328C75.0684 1.52328 76.529 2.12676 77.7531 3.3509L79.1257 1.97836C77.534 0.386661 75.5782 -0.417787 73.315 -0.417787V1.52328ZM77.7531 3.3509C78.9794 4.57717 79.5807 6.02825 79.5807 7.758H81.5218C81.5218 5.51244 80.7152 3.56794 79.1257 1.97836L77.7531 3.3509ZM79.5807 7.758C79.5807 8.9071 79.2572 9.97468 78.5924 10.9809L80.2119 12.0509C81.0792 10.7382 81.5218 9.30051 81.5218 7.758H79.5807ZM78.5969 10.9742C77.9318 11.9629 77.0566 12.7053 75.9537 13.2116L76.7634 14.9757C78.1865 14.3225 79.3404 13.3464 80.2074 12.0576L78.5969 10.9742ZM75.5216 14.585L80.3355 22.7841L82.0094 21.8013L77.1955 13.6023L75.5216 14.585ZM81.1724 21.3222H76.5449V23.2633H81.1724V21.3222ZM67.9343 4.55911V10.9879H69.8754V4.55911H67.9343ZM68.9049 11.9585H73.315V10.0174H68.9049V11.9585ZM73.315 11.9585C74.4069 11.9585 75.3528 11.5247 76.1053 10.7184L74.6863 9.39401C74.2793 9.83004 73.838 10.0174 73.315 10.0174V11.9585ZM76.116 10.7068C76.862 9.88085 77.2359 8.88088 77.2359 7.758H75.2949C75.2949 8.41572 75.089 8.9479 74.6756 9.40569L76.116 10.7068ZM77.2359 7.758C77.2359 6.63482 76.8614 5.63873 76.1053 4.82862L74.6863 6.15304C75.0896 6.58521 75.2949 7.10056 75.2949 7.758H77.2359ZM76.1053 4.82862C75.3528 4.02236 74.4069 3.58858 73.315 3.58858V5.52965C73.838 5.52965 74.2793 5.71701 74.6863 6.15304L76.1053 4.82862ZM73.315 3.58858H68.9049V5.52965H73.315V3.58858ZM85.839 20.6778L85.1978 21.4063L85.839 20.6778ZM83.5097 0.552748V-0.417787H82.5392V0.552748H83.5097ZM87.7645 0.552748H88.7351V-0.417787H87.7645V0.552748ZM88.7273 17.541L88.0302 18.2163L88.0356 18.2218L88.041 18.2273L88.7273 17.541ZM94.8455 17.541L94.1593 16.8547L94.1538 16.8602L94.1485 16.8657L94.8455 17.541ZM95.8394 0.552748V-0.417787H94.8688V0.552748H95.8394ZM100.125 0.552748H101.096V-0.417787H100.125V0.552748ZM97.796 20.6778L98.4371 21.4063L97.796 20.6778ZM91.8019 21.757C89.5728 21.757 87.8262 21.1337 86.4801 19.9492L85.1978 21.4063C86.9575 22.9549 89.1862 23.6981 91.8019 23.6981V21.757ZM86.4801 19.9492C85.1614 18.7886 84.4802 17.2346 84.4802 15.1806H82.5392C82.5392 17.7231 83.4109 19.8339 85.1978 21.4063L86.4801 19.9492ZM84.4802 15.1806V0.552748H82.5392V15.1806H84.4802ZM83.5097 1.52328H87.7645V-0.417787H83.5097V1.52328ZM86.794 0.552748V14.839H88.7351V0.552748H86.794ZM86.794 14.839C86.794 16.1675 87.1739 17.3323 88.0302 18.2163L89.4244 16.8657C88.997 16.4245 88.7351 15.7881 88.7351 14.839H86.794ZM88.041 18.2273C88.9571 19.1434 90.2802 19.5053 91.8019 19.5053V17.5643C90.5493 17.5643 89.8225 17.2637 89.4136 16.8547L88.041 18.2273ZM91.8019 19.5053C93.3206 19.5053 94.6433 19.1446 95.5426 18.2163L94.1485 16.8657C93.7641 17.2624 93.0577 17.5643 91.8019 17.5643V19.5053ZM95.5318 18.2273C96.4143 17.3448 96.8099 16.1761 96.8099 14.839H94.8688C94.8688 15.7795 94.6019 16.4121 94.1593 16.8547L95.5318 18.2273ZM96.8099 14.839V0.552748H94.8688V14.839H96.8099ZM95.8394 1.52328H100.125V-0.417787H95.8394V1.52328ZM99.1547 0.552748V15.1806H101.096V0.552748H99.1547ZM99.1547 15.1806C99.1547 17.2346 98.4736 18.7886 97.1548 19.9492L98.4371 21.4063C100.224 19.8339 101.096 17.7231 101.096 15.1806H99.1547ZM97.1548 19.9492C95.8103 21.1323 94.0542 21.757 91.8019 21.757V23.6981C94.436 23.6981 96.6759 22.9562 98.4371 21.4063L97.1548 19.9492ZM106.191 19.4665L106.884 18.7869L106.191 19.4665ZM106.191 3.37895L106.881 4.0619L106.884 4.05859L106.191 3.37895ZM119.732 1.51552L119.256 2.36141L119.263 2.36493L119.269 2.36835L119.732 1.51552ZM123.645 5.24237L124.132 6.08197L124.98 5.59068L124.481 4.74789L123.645 5.24237ZM119.95 7.38531L119.1 7.85511L119.58 8.72166L120.436 8.22492L119.95 7.38531ZM117.651 5.11814L117.176 5.96404L117.182 5.96784L117.189 5.97153L117.651 5.11814ZM109.173 6.26726L108.481 5.58639L108.476 5.59196L109.173 6.26726ZM109.173 16.5472L108.476 17.2225L108.481 17.228L109.173 16.5472ZM117.651 17.7273L118.114 18.5807L118.12 18.5774L117.651 17.7273ZM119.95 15.4602L120.436 14.6206L119.573 14.1201L119.097 14.9967L119.95 15.4602ZM123.645 17.6031L124.481 18.0976L124.98 17.2548L124.132 16.7635L123.645 17.6031ZM119.763 21.361L120.231 22.2114L120.239 22.2069L119.763 21.361ZM114.297 21.757C111.265 21.757 108.82 20.76 106.884 18.7869L105.499 20.1462C107.828 22.521 110.787 23.6981 114.297 23.6981V21.757ZM106.884 18.7869C104.939 16.8036 103.963 14.3704 103.963 11.4227H102.022C102.022 14.8522 103.179 17.7815 105.499 20.1462L106.884 18.7869ZM103.963 11.4227C103.963 8.45257 104.94 6.02191 106.881 4.06189L105.502 2.696C103.178 5.04256 102.022 7.97444 102.022 11.4227H103.963ZM106.884 4.05859C108.82 2.08543 111.265 1.08848 114.297 1.08848V-0.852587C110.787 -0.852587 107.828 0.324465 105.499 2.6993L106.884 4.05859ZM114.297 1.08848C116.104 1.08848 117.751 1.51434 119.256 2.36141L120.208 0.669624C118.401 -0.346733 116.425 -0.852587 114.297 -0.852587V1.08848ZM119.269 2.36835C120.799 3.1995 121.972 4.32087 122.81 5.73685L124.481 4.74789C123.456 3.01675 122.02 1.65355 120.196 0.662687L119.269 2.36835ZM123.159 4.40277L119.463 6.54571L120.436 8.22492L124.132 6.08197L123.159 4.40277ZM120.799 6.91551C120.169 5.77741 119.268 4.88984 118.114 4.26476L117.189 5.97153C118.023 6.42309 118.653 7.04697 119.1 7.85511L120.799 6.91551ZM118.127 4.27225C116.975 3.62431 115.691 3.30907 114.297 3.30907V5.25014C115.388 5.25014 116.34 5.49392 117.176 5.96404L118.127 4.27225ZM114.297 3.30907C111.964 3.30907 109.993 4.05021 108.481 5.58641L109.864 6.9481C110.961 5.83409 112.407 5.25014 114.297 5.25014V3.30907ZM108.476 5.59196C106.991 7.12457 106.277 9.0982 106.277 11.4227H108.218C108.218 9.52351 108.787 8.06015 109.87 6.94255L108.476 5.59196ZM106.277 11.4227C106.277 13.7295 106.993 15.6917 108.476 17.2225L109.87 15.8719C108.785 14.7524 108.218 13.2983 108.218 11.4227H106.277ZM108.481 17.228C109.993 18.7642 111.964 19.5053 114.297 19.5053V17.5643C112.407 17.5643 110.961 16.9803 109.864 15.8663L108.481 17.228ZM114.297 19.5053C115.685 19.5053 116.964 19.2034 118.114 18.5807L117.189 16.8739C116.351 17.328 115.394 17.5643 114.297 17.5643V19.5053ZM118.12 18.5774C119.285 17.9353 120.19 17.0503 120.802 15.9236L119.097 14.9967C118.674 15.7749 118.047 16.4013 117.183 16.8773L118.12 18.5774ZM119.463 16.2998L123.159 18.4427L124.132 16.7635L120.436 14.6206L119.463 16.2998ZM122.81 17.1086C121.969 18.5296 120.801 19.6635 119.287 20.5151L120.239 22.2069C122.038 21.1951 123.459 19.8237 124.481 18.0976L122.81 17.1086ZM119.296 20.5106C117.79 21.3387 116.13 21.757 114.297 21.757V23.6981C116.44 23.6981 118.424 23.2053 120.231 22.2114L119.296 20.5106ZM140.9 0.552748H141.871V-0.417787H140.9V0.552748ZM140.9 4.65229V5.62282H141.871V4.65229H140.9ZM135.031 4.65229V3.68175H134.06V4.65229H135.031ZM135.031 22.2927V23.2633H136.001V22.2927H135.031ZM130.745 22.2927H129.774V23.2633H130.745V22.2927ZM130.745 4.65229H131.715V3.68175H130.745V4.65229ZM124.906 4.65229H123.935V5.62282H124.906V4.65229ZM124.906 0.552748V-0.417787H123.935V0.552748H124.906ZM139.93 0.552748V4.65229H141.871V0.552748H139.93ZM140.9 3.68175H135.031V5.62282H140.9V3.68175ZM134.06 4.65229V22.2927H136.001V4.65229H134.06ZM135.031 21.3222H130.745V23.2633H135.031V21.3222ZM131.715 22.2927V4.65229H129.774V22.2927H131.715ZM130.745 3.68175H124.906V5.62282H130.745V3.68175ZM125.876 4.65229V0.552748H123.935V4.65229H125.876ZM124.906 1.52328H140.9V-0.417787H124.906V1.52328ZM161.586 19.4665L162.269 20.1561L162.272 20.1528L161.586 19.4665ZM145.56 19.4665L144.871 20.1496L144.877 20.156L145.56 19.4665ZM145.56 3.41L144.874 2.72373L145.56 3.41ZM161.586 3.41L160.899 4.09628L160.903 4.09952L161.586 3.41ZM148.573 16.5472L147.886 17.2335L147.892 17.2387L148.573 16.5472ZM158.573 16.5472L159.254 17.2388L159.259 17.2334L158.573 16.5472ZM158.573 6.29831L159.259 5.61204V5.61204L158.573 6.29831ZM148.573 6.29831L147.886 5.61204L148.573 6.29831ZM160.903 18.777C158.893 20.7672 156.47 21.757 153.573 21.757V23.6981C156.97 23.6981 159.888 22.5138 162.269 20.156L160.903 18.777ZM153.573 21.757C150.676 21.757 148.252 20.7672 146.243 18.777L144.877 20.156C147.257 22.5138 150.175 23.6981 153.573 23.6981V21.757ZM146.25 18.7835C144.261 16.7757 143.27 14.342 143.27 11.4227H141.329C141.329 14.8391 142.512 17.768 144.871 20.1495L146.25 18.7835ZM143.27 11.4227C143.27 8.50357 144.26 6.08217 146.246 4.09627L144.874 2.72373C142.512 5.08583 141.329 8.00625 141.329 11.4227H143.27ZM146.246 4.09627C148.256 2.08642 150.679 1.08848 153.573 1.08848V-0.852587C150.172 -0.852587 147.253 0.344182 144.874 2.72373L146.246 4.09627ZM153.573 1.08848C156.467 1.08848 158.889 2.08642 160.899 4.09627L162.272 2.72373C159.892 0.344182 156.973 -0.852587 153.573 -0.852587V1.08848ZM160.903 4.09952C162.908 6.08611 163.907 8.50651 163.907 11.4227H165.848C165.848 8.00331 164.652 5.08189 162.269 2.72049L160.903 4.09952ZM163.907 11.4227C163.907 14.3391 162.908 16.7717 160.899 18.7803L162.272 20.1528C164.653 17.7719 165.848 14.842 165.848 11.4227H163.907ZM147.892 17.2387C149.429 18.7527 151.345 19.5053 153.573 19.5053V17.5643C151.825 17.5643 150.408 16.9918 149.254 15.8556L147.892 17.2387ZM153.573 19.5053C155.8 19.5053 157.716 18.7527 159.254 17.2387L157.892 15.8556C156.738 16.9918 155.321 17.5643 153.573 17.5643V19.5053ZM159.259 17.2334C160.804 15.6887 161.562 13.7257 161.562 11.4227H159.621C159.621 13.2607 159.034 14.714 157.887 15.8609L159.259 17.2334ZM161.562 11.4227C161.562 9.11978 160.804 7.15676 159.259 5.61204L157.887 6.98458C159.034 8.13148 159.621 9.58474 159.621 11.4227H161.562ZM159.259 5.61204C157.723 4.07542 155.805 3.30907 153.573 3.30907V5.25014C155.316 5.25014 156.732 5.82959 157.887 6.98458L159.259 5.61204ZM153.573 3.30907C151.341 3.30907 149.423 4.07542 147.886 5.61204L149.259 6.98458C150.414 5.82959 151.83 5.25014 153.573 5.25014V3.30907ZM147.886 5.61204C146.342 7.15676 145.583 9.11978 145.583 11.4227H147.524C147.524 9.58474 148.112 8.13148 149.259 6.98458L147.886 5.61204ZM145.583 11.4227C145.583 13.7257 146.342 15.6887 147.886 17.2334L149.259 15.8609C148.112 14.714 147.524 13.2607 147.524 11.4227H145.583ZM179.816 22.2927L178.976 22.7798L179.257 23.2633H179.816V22.2927ZM175.437 14.7458L176.276 14.2588L175.996 13.7753H175.437V14.7458ZM172.176 14.7458V13.7753H171.205V14.7458H172.176ZM172.176 22.2927V23.2633H173.146V22.2927H172.176ZM167.89 22.2927H166.919V23.2633H167.89V22.2927ZM167.89 0.552748V-0.417787H166.919V0.552748H167.89ZM181.71 2.66463L182.397 1.97836L182.397 1.97836L181.71 2.66463ZM182.673 11.5159L183.478 12.0577L183.483 12.0509L182.673 11.5159ZM179.63 14.0936L179.225 13.2116L178.249 13.6594L178.793 14.585L179.63 14.0936ZM184.443 22.2927V23.2633H186.139L185.28 21.8013L184.443 22.2927ZM172.176 4.55911V3.58858H171.205V4.55911H172.176ZM172.176 10.9879H171.205V11.9585H172.176V10.9879ZM178.667 10.0562L179.376 10.7184L179.382 10.7126L179.387 10.7068L178.667 10.0562ZM178.667 5.49083L177.957 6.15304L178.667 5.49083ZM180.655 21.8056L176.276 14.2588L174.597 15.2329L178.976 22.7798L180.655 21.8056ZM175.437 13.7753H172.176V15.7164H175.437V13.7753ZM171.205 14.7458V22.2927H173.146V14.7458H171.205ZM172.176 21.3222H167.89V23.2633H172.176V21.3222ZM168.86 22.2927V0.552748H166.919V22.2927H168.86ZM167.89 1.52328H176.586V-0.417787H167.89V1.52328ZM176.586 1.52328C178.339 1.52328 179.8 2.12676 181.024 3.3509L182.397 1.97836C180.805 0.386661 178.849 -0.417787 176.586 -0.417787V1.52328ZM181.024 3.3509C182.25 4.57717 182.852 6.02825 182.852 7.758H184.793C184.793 5.51244 183.986 3.56794 182.397 1.97836L181.024 3.3509ZM182.852 7.758C182.852 8.9071 182.528 9.97468 181.863 10.9809L183.483 12.0509C184.35 10.7382 184.793 9.30051 184.793 7.758H182.852ZM181.868 10.9742C181.203 11.9629 180.328 12.7053 179.225 13.2116L180.034 14.9757C181.457 14.3225 182.611 13.3464 183.478 12.0576L181.868 10.9742ZM178.793 14.585L183.606 22.7841L185.28 21.8013L180.466 13.6023L178.793 14.585ZM184.443 21.3222H179.816V23.2633H184.443V21.3222ZM171.205 4.55911V10.9879H173.146V4.55911H171.205ZM172.176 11.9585H176.586V10.0174H172.176V11.9585ZM176.586 11.9585C177.678 11.9585 178.624 11.5247 179.376 10.7184L177.957 9.39401C177.55 9.83004 177.109 10.0174 176.586 10.0174V11.9585ZM179.387 10.7068C180.133 9.88085 180.507 8.88088 180.507 7.758H178.566C178.566 8.41572 178.36 8.9479 177.947 9.40569L179.387 10.7068ZM180.507 7.758C180.507 6.63482 180.132 5.63873 179.376 4.82862L177.957 6.15304C178.361 6.58521 178.566 7.10056 178.566 7.758H180.507ZM179.376 4.82862C178.624 4.02236 177.678 3.58858 176.586 3.58858V5.52965C177.109 5.52965 177.55 5.71701 177.957 6.15304L179.376 4.82862ZM176.586 3.58858H172.176V5.52965H176.586V3.58858ZM188.955 21.2989L188.419 22.1082L188.427 22.1134L188.955 21.2989ZM185.849 17.3546L185.359 16.5168L184.661 16.9251L184.937 17.6854L185.849 17.3546ZM189.514 15.2117L190.42 14.8644L190.011 13.7967L189.024 14.3739L189.514 15.2117ZM197.154 17.8826L196.558 17.1165L197.154 17.8826ZM196.967 14.4663L196.446 15.2851L196.455 15.2908L196.464 15.2963L196.967 14.4663ZM193.303 13.0688L193.026 13.999L193.039 14.0028L193.303 13.0688ZM190.818 12.1992L190.429 13.0884L190.439 13.0926L190.818 12.1992ZM188.799 11.0501L188.217 11.8265L188.231 11.8366L188.244 11.8463L188.799 11.0501ZM187.278 9.18662L186.4 9.60105L187.278 9.18662ZM188.83 1.8882L189.453 2.63288L189.454 2.63199L188.83 1.8882ZM198.52 1.42235L197.988 2.23376L197.995 2.23856L198.002 2.24322L198.52 1.42235ZM201.657 4.99391L202.142 5.83434L202.925 5.38222L202.53 4.56934L201.657 4.99391ZM198.054 7.07474L197.175 7.48517L197.623 8.44484L198.54 7.91516L198.054 7.07474ZM191.781 4.90074L192.383 5.6617L192.387 5.6586L191.781 4.90074ZM191.874 8.13068L191.278 8.89678L191.294 8.90893L191.31 8.92044L191.874 8.13068ZM195.166 9.4972L195.456 8.57083L195.451 8.56958L195.166 9.4972ZM196.657 9.99411L196.316 10.9028L196.349 10.9152L196.383 10.9252L196.657 9.99411ZM198.054 10.5221L197.672 11.4141L197.691 11.4222L197.71 11.4295L198.054 10.5221ZM199.421 11.1743L198.883 11.9818L198.894 11.9897L198.907 11.9973L199.421 11.1743ZM200.539 12.0128L201.168 11.2733L200.539 12.0128ZM201.471 13.0998L200.622 13.5712L200.632 13.5887L200.643 13.6059L201.471 13.0998ZM202.03 14.4663L201.093 14.7186L201.098 14.7405L201.105 14.7621L202.03 14.4663ZM200.073 20.9573L199.465 20.2004L199.46 20.2047L200.073 20.9573ZM194.39 21.757C192.381 21.757 190.763 21.3138 189.482 20.4844L188.427 22.1134C190.087 23.1888 192.092 23.6981 194.39 23.6981V21.757ZM189.49 20.4896C188.194 19.6314 187.291 18.4843 186.761 17.0239L184.937 17.6854C185.608 19.5377 186.775 21.0202 188.419 22.1082L189.49 20.4896ZM186.339 18.1925L190.004 16.0495L189.024 14.3739L185.359 16.5168L186.339 18.1925ZM188.607 15.559C189.09 16.8191 189.833 17.8274 190.863 18.5123C191.89 19.195 193.127 19.5053 194.514 19.5053V17.5643C193.416 17.5643 192.577 17.3208 191.938 16.8957C191.302 16.473 190.786 15.8197 190.42 14.8644L188.607 15.559ZM194.514 19.5053C195.794 19.5053 196.937 19.2806 197.75 18.6487L196.558 17.1165C196.252 17.3543 195.635 17.5643 194.514 17.5643V19.5053ZM197.75 18.6487C198.526 18.0447 198.963 17.2217 198.963 16.2366H197.022C197.022 16.5766 196.899 16.851 196.558 17.1165L197.75 18.6487ZM198.963 16.2366C198.963 15.1138 198.429 14.2171 197.47 13.6363L196.464 15.2963C196.873 15.5437 197.022 15.8273 197.022 16.2366H198.963ZM197.488 13.6475C196.675 13.1299 195.332 12.6333 193.566 12.1347L193.039 14.0028C194.793 14.498 195.893 14.9331 196.446 15.2851L197.488 13.6475ZM193.58 12.1386C192.63 11.8556 191.838 11.5774 191.197 11.3057L190.439 13.0926C191.165 13.4007 192.029 13.7022 193.026 13.9989L193.58 12.1386ZM191.207 11.31C190.611 11.0491 189.993 10.699 189.354 10.2538L188.244 11.8463C188.972 12.3535 189.7 12.7695 190.429 13.0883L191.207 11.31ZM189.382 10.2736C188.845 9.87107 188.439 9.37396 188.155 8.7722L186.4 9.60105C186.82 10.49 187.429 11.2352 188.217 11.8265L189.382 10.2736ZM188.155 8.7722C187.876 8.18032 187.72 7.45736 187.72 6.57783H185.779C185.779 7.68595 185.976 8.70219 186.4 9.60105L188.155 8.7722ZM187.72 6.57783C187.72 4.8697 188.307 3.59029 189.453 2.63288L188.208 1.14353C186.579 2.50505 185.779 4.35205 185.779 6.57783H187.72ZM189.454 2.63199C190.674 1.60908 192.136 1.08848 193.893 1.08848V-0.852587C191.715 -0.852587 189.802 -0.193017 188.207 1.14442L189.454 2.63199ZM193.893 1.08848C195.485 1.08848 196.838 1.47925 197.988 2.23376L199.053 0.610933C197.552 -0.373756 195.82 -0.852587 193.893 -0.852587V1.08848ZM198.002 2.24322C199.184 2.98878 200.112 4.03693 200.784 5.41849L202.53 4.56934C201.711 2.8866 200.548 1.5537 199.038 0.60147L198.002 2.24322ZM201.172 4.15349L197.569 6.23432L198.54 7.91516L202.142 5.83434L201.172 4.15349ZM198.934 6.66432C198.442 5.60931 197.774 4.75748 196.903 4.17271C196.028 3.58486 195.01 3.30907 193.893 3.30907V5.25014C194.68 5.25014 195.309 5.4402 195.821 5.78406C196.337 6.131 196.798 6.67675 197.175 7.48517L198.934 6.66432ZM193.893 3.30907C192.858 3.30907 191.915 3.55039 191.175 4.14288L192.387 5.6586C192.682 5.42291 193.147 5.25014 193.893 5.25014V3.30907ZM191.178 4.1398C190.446 4.71999 190.065 5.51959 190.065 6.4536H192.006C192.006 6.10391 192.122 5.86828 192.383 5.66169L191.178 4.1398ZM190.065 6.4536C190.065 7.44887 190.493 8.28593 191.278 8.89678L192.47 7.36459C192.137 7.10584 192.006 6.82484 192.006 6.4536H190.065ZM191.31 8.92044C192.031 9.43516 193.265 9.92778 194.881 10.4248L195.451 8.56958C193.837 8.07278 192.877 7.65439 192.438 7.34093L191.31 8.92044ZM194.877 10.4236C195.535 10.6293 196.011 10.7884 196.316 10.9028L196.998 9.08537C196.64 8.95134 196.122 8.77921 195.456 8.57084L194.877 10.4236ZM196.383 10.9252C196.681 11.0129 197.106 11.1717 197.672 11.4141L198.437 9.63002C197.843 9.37551 197.337 9.18238 196.931 9.06301L196.383 10.9252ZM197.71 11.4295C198.284 11.6471 198.661 11.834 198.883 11.9818L199.959 10.3667C199.56 10.1004 199.026 9.85261 198.399 9.61463L197.71 11.4295ZM198.907 11.9973C199.186 12.1718 199.519 12.42 199.91 12.7523L201.168 11.2733C200.73 10.9016 200.319 10.5909 199.935 10.3513L198.907 11.9973ZM199.91 12.7523C200.259 13.0486 200.485 13.324 200.622 13.5712L202.319 12.6285C202.042 12.1303 201.647 11.681 201.168 11.2733L199.91 12.7523ZM200.643 13.6059C200.811 13.8813 200.965 14.2463 201.093 14.7186L202.967 14.214C202.804 13.6097 202.586 13.0637 202.299 12.5937L200.643 13.6059ZM201.105 14.7621C201.236 15.1716 201.308 15.6396 201.308 16.1745H203.249C203.249 15.467 203.154 14.7963 202.954 14.1705L201.105 14.7621ZM201.308 16.1745C201.308 17.9107 200.689 19.2179 199.466 20.2004L200.681 21.7141C202.397 20.3363 203.249 18.455 203.249 16.1745H201.308ZM199.46 20.2047C198.224 21.2113 196.564 21.757 194.39 21.757V23.6981C196.895 23.6981 199.024 23.0635 200.686 21.7099L199.46 20.2047Z" fill="white" mask="url(#path-1-outside-1_165_33)"/>
</svg>
